solid iron_hook
  facet normal 0.000000 0.000000 -1.000000
    outer loop
      vertex 26.000000 81.000000 22.000000
      vertex 0.000000 81.000000 22.000000
      vertex 0.000000 87.000000 22.000000
    endloop
  endfacet
  facet normal 0.000000 0.000000 -1.000000
    outer loop
      vertex 26.000000 81.000000 22.000000
      vertex 0.000000 87.000000 22.000000
      vertex 26.000000 87.000000 22.000000
    endloop
  endfacet
  facet normal 0.000000 0.000000 1.000000
    outer loop
      vertex 26.000000 87.000000 0.000000
      vertex 0.000000 87.000000 0.000000
      vertex 0.000000 81.000000 0.000000
    endloop
  endfacet
  facet normal 0.000000 0.000000 1.000000
    outer loop
      vertex 26.000000 87.000000 0.000000
      vertex 0.000000 81.000000 0.000000
      vertex 26.000000 81.000000 0.000000
    endloop
  endfacet
  facet normal 0.000000 -1.000000 0.000000
    outer loop
      vertex 26.000000 81.000000 0.000000
      vertex 26.000000 81.000000 22.000000
      vertex 0.000000 81.000000 22.000000
    endloop
  endfacet
  facet normal 0.000000 -1.000000 0.000000
    outer loop
      vertex 26.000000 81.000000 0.000000
      vertex 0.000000 81.000000 22.000000
      vertex 0.000000 81.000000 0.000000
    endloop
  endfacet
  facet normal -1.000000 0.000000 0.000000
    outer loop
      vertex 0.000000 81.000000 0.000000
      vertex 0.000000 81.000000 22.000000
      vertex 0.000000 87.000000 22.000000
    endloop
  endfacet
  facet normal -1.000000 0.000000 0.000000
    outer loop
      vertex 0.000000 81.000000 0.000000
      vertex 0.000000 87.000000 22.000000
      vertex 0.000000 87.000000 0.000000
    endloop
  endfacet
  facet normal 0.000000 1.000000 0.000000
    outer loop
      vertex 0.000000 87.000000 0.000000
      vertex 0.000000 87.000000 22.000000
      vertex 26.000000 87.000000 22.000000
    endloop
  endfacet
  facet normal 0.000000 1.000000 0.000000
    outer loop
      vertex 0.000000 87.000000 0.000000
      vertex 26.000000 87.000000 22.000000
      vertex 26.000000 87.000000 0.000000
    endloop
  endfacet
  facet normal 1.000000 0.000000 -0.000000
    outer loop
      vertex 26.000000 87.000000 0.000000
      vertex 26.000000 87.000000 22.000000
      vertex 26.000000 81.000000 22.000000
    endloop
  endfacet
  facet normal 1.000000 0.000000 0.000000
    outer loop
      vertex 26.000000 87.000000 0.000000
      vertex 26.000000 81.000000 22.000000
      vertex 26.000000 81.000000 0.000000
    endloop
  endfacet
  facet normal 0.000000 -0.000000 -1.000000
    outer loop
      vertex 3.000000 84.000000 22.000000
      vertex 3.000000 75.000000 22.000000
      vertex -3.000000 75.000000 22.000000
    endloop
  endfacet
  facet normal -0.000000 0.000000 -1.000000
    outer loop
      vertex 3.000000 84.000000 22.000000
      vertex -3.000000 75.000000 22.000000
      vertex -3.000000 84.000000 22.000000
    endloop
  endfacet
  facet normal 0.000000 0.000000 1.000000
    outer loop
      vertex -3.000000 84.000000 0.000000
      vertex -3.000000 75.000000 0.000000
      vertex 3.000000 75.000000 0.000000
    endloop
  endfacet
  facet normal -0.000000 0.000000 1.000000
    outer loop
      vertex -3.000000 84.000000 0.000000
      vertex 3.000000 75.000000 0.000000
      vertex 3.000000 84.000000 0.000000
    endloop
  endfacet
  facet normal 1.000000 0.000000 -0.000000
    outer loop
      vertex 3.000000 84.000000 0.000000
      vertex 3.000000 84.000000 22.000000
      vertex 3.000000 75.000000 22.000000
    endloop
  endfacet
  facet normal 1.000000 0.000000 0.000000
    outer loop
      vertex 3.000000 84.000000 0.000000
      vertex 3.000000 75.000000 22.000000
      vertex 3.000000 75.000000 0.000000
    endloop
  endfacet
  facet normal 0.000000 -1.000000 0.000000
    outer loop
      vertex 3.000000 75.000000 0.000000
      vertex 3.000000 75.000000 22.000000
      vertex -3.000000 75.000000 22.000000
    endloop
  endfacet
  facet normal 0.000000 -1.000000 0.000000
    outer loop
      vertex 3.000000 75.000000 0.000000
      vertex -3.000000 75.000000 22.000000
      vertex -3.000000 75.000000 0.000000
    endloop
  endfacet
  facet normal -1.000000 0.000000 0.000000
    outer loop
      vertex -3.000000 75.000000 0.000000
      vertex -3.000000 75.000000 22.000000
      vertex -3.000000 84.000000 22.000000
    endloop
  endfacet
  facet normal -1.000000 0.000000 0.000000
    outer loop
      vertex -3.000000 75.000000 0.000000
      vertex -3.000000 84.000000 22.000000
      vertex -3.000000 84.000000 0.000000
    endloop
  endfacet
  facet normal 0.000000 1.000000 0.000000
    outer loop
      vertex -3.000000 84.000000 0.000000
      vertex -3.000000 84.000000 22.000000
      vertex 3.000000 84.000000 22.000000
    endloop
  endfacet
  facet normal 0.000000 1.000000 0.000000
    outer loop
      vertex -3.000000 84.000000 0.000000
      vertex 3.000000 84.000000 22.000000
      vertex 3.000000 84.000000 0.000000
    endloop
  endfacet
  facet normal 0.000000 -0.000000 -1.000000
    outer loop
      vertex 3.000000 75.000000 22.000000
      vertex 3.000000 0.000000 22.000000
      vertex -3.000000 0.000000 22.000000
    endloop
  endfacet
  facet normal -0.000000 0.000000 -1.000000
    outer loop
      vertex 3.000000 75.000000 22.000000
      vertex -3.000000 0.000000 22.000000
      vertex -3.000000 75.000000 22.000000
    endloop
  endfacet
  facet normal 0.000000 0.000000 1.000000
    outer loop
      vertex -3.000000 75.000000 0.000000
      vertex -3.000000 0.000000 0.000000
      vertex 3.000000 0.000000 0.000000
    endloop
  endfacet
  facet normal -0.000000 0.000000 1.000000
    outer loop
      vertex -3.000000 75.000000 0.000000
      vertex 3.000000 0.000000 0.000000
      vertex 3.000000 75.000000 0.000000
    endloop
  endfacet
  facet normal 1.000000 0.000000 -0.000000
    outer loop
      vertex 3.000000 75.000000 0.000000
      vertex 3.000000 75.000000 22.000000
      vertex 3.000000 0.000000 22.000000
    endloop
  endfacet
  facet normal 1.000000 0.000000 0.000000
    outer loop
      vertex 3.000000 75.000000 0.000000
      vertex 3.000000 0.000000 22.000000
      vertex 3.000000 0.000000 0.000000
    endloop
  endfacet
  facet normal 0.000000 -1.000000 0.000000
    outer loop
      vertex 3.000000 0.000000 0.000000
      vertex 3.000000 0.000000 22.000000
      vertex -3.000000 0.000000 22.000000
    endloop
  endfacet
  facet normal 0.000000 -1.000000 0.000000
    outer loop
      vertex 3.000000 0.000000 0.000000
      vertex -3.000000 0.000000 22.000000
      vertex -3.000000 0.000000 0.000000
    endloop
  endfacet
  facet normal -1.000000 0.000000 0.000000
    outer loop
      vertex -3.000000 0.000000 0.000000
      vertex -3.000000 0.000000 22.000000
      vertex -3.000000 75.000000 22.000000
    endloop
  endfacet
  facet normal -1.000000 0.000000 0.000000
    outer loop
      vertex -3.000000 0.000000 0.000000
      vertex -3.000000 75.000000 22.000000
      vertex -3.000000 75.000000 0.000000
    endloop
  endfacet
  facet normal 0.000000 1.000000 0.000000
    outer loop
      vertex -3.000000 75.000000 0.000000
      vertex -3.000000 75.000000 22.000000
      vertex 3.000000 75.000000 22.000000
    endloop
  endfacet
  facet normal 0.000000 1.000000 0.000000
    outer loop
      vertex -3.000000 75.000000 0.000000
      vertex 3.000000 75.000000 22.000000
      vertex 3.000000 75.000000 0.000000
    endloop
  endfacet
  facet normal 0.000000 -0.000000 -1.000000
    outer loop
      vertex 2.983566 0.313585 22.000000
      vertex 3.333204 -3.013002 22.000000
      vertex -2.633927 -3.640172 22.000000
    endloop
  endfacet
  facet normal 0.000000 0.000000 -1.000000
    outer loop
      vertex 2.983566 0.313585 22.000000
      vertex -2.633927 -3.640172 22.000000
      vertex -2.983566 -0.313585 22.000000
    endloop
  endfacet
  facet normal 0.000000 0.000000 1.000000
    outer loop
      vertex -2.983566 -0.313585 0.000000
      vertex -2.633927 -3.640172 0.000000
      vertex 3.333204 -3.013002 0.000000
    endloop
  endfacet
  facet normal -0.000000 0.000000 1.000000
    outer loop
      vertex -2.983566 -0.313585 0.000000
      vertex 3.333204 -3.013002 0.000000
      vertex 2.983566 0.313585 0.000000
    endloop
  endfacet
  facet normal 0.994522 0.104528 -0.000000
    outer loop
      vertex 2.983566 0.313585 0.000000
      vertex 2.983566 0.313585 22.000000
      vertex 3.333204 -3.013002 22.000000
    endloop
  endfacet
  facet normal 0.994522 0.104528 0.000000
    outer loop
      vertex 2.983566 0.313585 0.000000
      vertex 3.333204 -3.013002 22.000000
      vertex 3.333204 -3.013002 0.000000
    endloop
  endfacet
  facet normal 0.104528 -0.994522 0.000000
    outer loop
      vertex 3.333204 -3.013002 0.000000
      vertex 3.333204 -3.013002 22.000000
      vertex -2.633927 -3.640172 22.000000
    endloop
  endfacet
  facet normal 0.104528 -0.994522 0.000000
    outer loop
      vertex 3.333204 -3.013002 0.000000
      vertex -2.633927 -3.640172 22.000000
      vertex -2.633927 -3.640172 0.000000
    endloop
  endfacet
  facet normal -0.994522 -0.104528 0.000000
    outer loop
      vertex -2.633927 -3.640172 0.000000
      vertex -2.633927 -3.640172 22.000000
      vertex -2.983566 -0.313585 22.000000
    endloop
  endfacet
  facet normal -0.994522 -0.104528 0.000000
    outer loop
      vertex -2.633927 -3.640172 0.000000
      vertex -2.983566 -0.313585 22.000000
      vertex -2.983566 -0.313585 0.000000
    endloop
  endfacet
  facet normal -0.104528 0.994522 0.000000
    outer loop
      vertex -2.983566 -0.313585 0.000000
      vertex -2.983566 -0.313585 22.000000
      vertex 2.983566 0.313585 22.000000
    endloop
  endfacet
  facet normal -0.104528 0.994522 0.000000
    outer loop
      vertex -2.983566 -0.313585 0.000000
      vertex 2.983566 0.313585 22.000000
      vertex 2.983566 0.313585 0.000000
    endloop
  endfacet
  facet normal 0.000000 -0.000000 -1.000000
    outer loop
      vertex 3.202808 -2.399536 22.000000
      vertex 4.236442 -5.580735 22.000000
      vertex -1.469897 -7.434837 22.000000
    endloop
  endfacet
  facet normal 0.000000 0.000000 -1.000000
    outer loop
      vertex 3.202808 -2.399536 22.000000
      vertex -1.469897 -7.434837 22.000000
      vertex -2.503531 -4.253638 22.000000
    endloop
  endfacet
  facet normal 0.000000 0.000000 1.000000
    outer loop
      vertex -2.503531 -4.253638 0.000000
      vertex -1.469897 -7.434837 0.000000
      vertex 4.236442 -5.580735 0.000000
    endloop
  endfacet
  facet normal -0.000000 0.000000 1.000000
    outer loop
      vertex -2.503531 -4.253638 0.000000
      vertex 4.236442 -5.580735 0.000000
      vertex 3.202808 -2.399536 0.000000
    endloop
  endfacet
  facet normal 0.951057 0.309017 -0.000000
    outer loop
      vertex 3.202808 -2.399536 0.000000
      vertex 3.202808 -2.399536 22.000000
      vertex 4.236442 -5.580735 22.000000
    endloop
  endfacet
  facet normal 0.951057 0.309017 0.000000
    outer loop
      vertex 3.202808 -2.399536 0.000000
      vertex 4.236442 -5.580735 22.000000
      vertex 4.236442 -5.580735 0.000000
    endloop
  endfacet
  facet normal 0.309017 -0.951057 0.000000
    outer loop
      vertex 4.236442 -5.580735 0.000000
      vertex 4.236442 -5.580735 22.000000
      vertex -1.469897 -7.434837 22.000000
    endloop
  endfacet
  facet normal 0.309017 -0.951057 0.000000
    outer loop
      vertex 4.236442 -5.580735 0.000000
      vertex -1.469897 -7.434837 22.000000
      vertex -1.469897 -7.434837 0.000000
    endloop
  endfacet
  facet normal -0.951057 -0.309017 0.000000
    outer loop
      vertex -1.469897 -7.434837 0.000000
      vertex -1.469897 -7.434837 22.000000
      vertex -2.503531 -4.253638 22.000000
    endloop
  endfacet
  facet normal -0.951057 -0.309017 0.000000
    outer loop
      vertex -1.469897 -7.434837 0.000000
      vertex -2.503531 -4.253638 22.000000
      vertex -2.503531 -4.253638 0.000000
    endloop
  endfacet
  facet normal -0.309017 0.951057 0.000000
    outer loop
      vertex -2.503531 -4.253638 0.000000
      vertex -2.503531 -4.253638 22.000000
      vertex 3.202808 -2.399536 22.000000
    endloop
  endfacet
  facet normal -0.309017 0.951057 0.000000
    outer loop
      vertex -2.503531 -4.253638 0.000000
      vertex 3.202808 -2.399536 22.000000
      vertex 3.202808 -2.399536 0.000000
    endloop
  endfacet
  facet normal 0.000000 -0.000000 -1.000000
    outer loop
      vertex 3.981349 -5.007786 22.000000
      vertex 5.653804 -7.904564 22.000000
      vertex 0.457652 -10.904564 22.000000
    endloop
  endfacet
  facet normal 0.000000 0.000000 -1.000000
    outer loop
      vertex 3.981349 -5.007786 22.000000
      vertex 0.457652 -10.904564 22.000000
      vertex -1.214804 -8.007786 22.000000
    endloop
  endfacet
  facet normal -0.000000 0.000000 1.000000
    outer loop
      vertex -1.214804 -8.007786 0.000000
      vertex 0.457652 -10.904564 0.000000
      vertex 5.653804 -7.904564 0.000000
    endloop
  endfacet
  facet normal 0.000000 0.000000 1.000000
    outer loop
      vertex -1.214804 -8.007786 0.000000
      vertex 5.653804 -7.904564 0.000000
      vertex 3.981349 -5.007786 0.000000
    endloop
  endfacet
  facet normal 0.866025 0.500000 -0.000000
    outer loop
      vertex 3.981349 -5.007786 0.000000
      vertex 3.981349 -5.007786 22.000000
      vertex 5.653804 -7.904564 22.000000
    endloop
  endfacet
  facet normal 0.866025 0.500000 0.000000
    outer loop
      vertex 3.981349 -5.007786 0.000000
      vertex 5.653804 -7.904564 22.000000
      vertex 5.653804 -7.904564 0.000000
    endloop
  endfacet
  facet normal 0.500000 -0.866025 0.000000
    outer loop
      vertex 5.653804 -7.904564 0.000000
      vertex 5.653804 -7.904564 22.000000
      vertex 0.457652 -10.904564 22.000000
    endloop
  endfacet
  facet normal 0.500000 -0.866025 0.000000
    outer loop
      vertex 5.653804 -7.904564 0.000000
      vertex 0.457652 -10.904564 22.000000
      vertex 0.457652 -10.904564 0.000000
    endloop
  endfacet
  facet normal -0.866025 -0.500000 0.000000
    outer loop
      vertex 0.457652 -10.904564 0.000000
      vertex 0.457652 -10.904564 22.000000
      vertex -1.214804 -8.007786 22.000000
    endloop
  endfacet
  facet normal -0.866025 -0.500000 0.000000
    outer loop
      vertex 0.457652 -10.904564 0.000000
      vertex -1.214804 -8.007786 22.000000
      vertex -1.214804 -8.007786 0.000000
    endloop
  endfacet
  facet normal -0.500000 0.866025 0.000000
    outer loop
      vertex -1.214804 -8.007786 0.000000
      vertex -1.214804 -8.007786 22.000000
      vertex 3.981349 -5.007786 22.000000
    endloop
  endfacet
  facet normal -0.500000 0.866025 0.000000
    outer loop
      vertex -1.214804 -8.007786 0.000000
      vertex 3.981349 -5.007786 22.000000
      vertex 3.981349 -5.007786 0.000000
    endloop
  endfacet
  facet normal 0.000000 -0.000000 -1.000000
    outer loop
      vertex 5.285163 -7.397172 22.000000
      vertex 7.523345 -9.882925 22.000000
      vertex 3.064476 -13.897709 22.000000
    endloop
  endfacet
  facet normal 0.000000 0.000000 -1.000000
    outer loop
      vertex 5.285163 -7.397172 22.000000
      vertex 3.064476 -13.897709 22.000000
      vertex 0.826294 -11.411956 22.000000
    endloop
  endfacet
  facet normal -0.000000 0.000000 1.000000
    outer loop
      vertex 0.826294 -11.411956 0.000000
      vertex 3.064476 -13.897709 0.000000
      vertex 7.523345 -9.882925 0.000000
    endloop
  endfacet
  facet normal 0.000000 0.000000 1.000000
    outer loop
      vertex 0.826294 -11.411956 0.000000
      vertex 7.523345 -9.882925 0.000000
      vertex 5.285163 -7.397172 0.000000
    endloop
  endfacet
  facet normal 0.743145 0.669131 -0.000000
    outer loop
      vertex 5.285163 -7.397172 0.000000
      vertex 5.285163 -7.397172 22.000000
      vertex 7.523345 -9.882925 22.000000
    endloop
  endfacet
  facet normal 0.743145 0.669131 0.000000
    outer loop
      vertex 5.285163 -7.397172 0.000000
      vertex 7.523345 -9.882925 22.000000
      vertex 7.523345 -9.882925 0.000000
    endloop
  endfacet
  facet normal 0.669131 -0.743145 0.000000
    outer loop
      vertex 7.523345 -9.882925 0.000000
      vertex 7.523345 -9.882925 22.000000
      vertex 3.064476 -13.897709 22.000000
    endloop
  endfacet
  facet normal 0.669131 -0.743145 0.000000
    outer loop
      vertex 7.523345 -9.882925 0.000000
      vertex 3.064476 -13.897709 22.000000
      vertex 3.064476 -13.897709 0.000000
    endloop
  endfacet
  facet normal -0.743145 -0.669131 0.000000
    outer loop
      vertex 3.064476 -13.897709 0.000000
      vertex 3.064476 -13.897709 22.000000
      vertex 0.826294 -11.411956 22.000000
    endloop
  endfacet
  facet normal -0.743145 -0.669131 0.000000
    outer loop
      vertex 3.064476 -13.897709 0.000000
      vertex 0.826294 -11.411956 22.000000
      vertex 0.826294 -11.411956 0.000000
    endloop
  endfacet
  facet normal -0.669131 0.743145 0.000000
    outer loop
      vertex 0.826294 -11.411956 0.000000
      vertex 0.826294 -11.411956 22.000000
      vertex 5.285163 -7.397172 22.000000
    endloop
  endfacet
  facet normal -0.669131 0.743145 0.000000
    outer loop
      vertex 0.826294 -11.411956 0.000000
      vertex 5.285163 -7.397172 22.000000
      vertex 5.285163 -7.397172 0.000000
    endloop
  endfacet
  facet normal 0.000000 -0.000000 -1.000000
    outer loop
      vertex 7.057266 -9.463266 22.000000
      vertex 9.763356 -11.429355 22.000000
      vertex 6.236644 -16.283457 22.000000
    endloop
  endfacet
  facet normal 0.000000 0.000000 -1.000000
    outer loop
      vertex 7.057266 -9.463266 22.000000
      vertex 6.236644 -16.283457 22.000000
      vertex 3.530555 -14.317368 22.000000
    endloop
  endfacet
  facet normal -0.000000 0.000000 1.000000
    outer loop
      vertex 3.530555 -14.317368 0.000000
      vertex 6.236644 -16.283457 0.000000
      vertex 9.763356 -11.429355 0.000000
    endloop
  endfacet
  facet normal 0.000000 0.000000 1.000000
    outer loop
      vertex 3.530555 -14.317368 0.000000
      vertex 9.763356 -11.429355 0.000000
      vertex 7.057266 -9.463266 0.000000
    endloop
  endfacet
  facet normal 0.587785 0.809017 -0.000000
    outer loop
      vertex 7.057266 -9.463266 0.000000
      vertex 7.057266 -9.463266 22.000000
      vertex 9.763356 -11.429355 22.000000
    endloop
  endfacet
  facet normal 0.587785 0.809017 0.000000
    outer loop
      vertex 7.057266 -9.463266 0.000000
      vertex 9.763356 -11.429355 22.000000
      vertex 9.763356 -11.429355 0.000000
    endloop
  endfacet
  facet normal 0.809017 -0.587785 0.000000
    outer loop
      vertex 9.763356 -11.429355 0.000000
      vertex 9.763356 -11.429355 22.000000
      vertex 6.236644 -16.283457 22.000000
    endloop
  endfacet
  facet normal 0.809017 -0.587785 0.000000
    outer loop
      vertex 9.763356 -11.429355 0.000000
      vertex 6.236644 -16.283457 22.000000
      vertex 6.236644 -16.283457 0.000000
    endloop
  endfacet
  facet normal -0.587785 -0.809017 0.000000
    outer loop
      vertex 6.236644 -16.283457 0.000000
      vertex 6.236644 -16.283457 22.000000
      vertex 3.530555 -14.317368 22.000000
    endloop
  endfacet
  facet normal -0.587785 -0.809017 0.000000
    outer loop
      vertex 6.236644 -16.283457 0.000000
      vertex 3.530555 -14.317368 22.000000
      vertex 3.530555 -14.317368 0.000000
    endloop
  endfacet
  facet normal -0.809017 0.587785 0.000000
    outer loop
      vertex 3.530555 -14.317368 0.000000
      vertex 3.530555 -14.317368 22.000000
      vertex 7.057266 -9.463266 22.000000
    endloop
  endfacet
  facet normal -0.809017 0.587785 0.000000
    outer loop
      vertex 3.530555 -14.317368 0.000000
      vertex 7.057266 -9.463266 22.000000
      vertex 7.057266 -9.463266 0.000000
    endloop
  endfacet
  facet normal 0.000000 0.000000 -1.000000
    outer loop
      vertex 9.220210 -11.115770 22.000000
      vertex 12.275938 -12.476268 22.000000
      vertex 9.835518 -17.957541 22.000000
    endloop
  endfacet
  facet normal 0.000000 -0.000000 -1.000000
    outer loop
      vertex 9.220210 -11.115770 22.000000
      vertex 9.835518 -17.957541 22.000000
      vertex 6.779790 -16.597043 22.000000
    endloop
  endfacet
  facet normal -0.000000 0.000000 1.000000
    outer loop
      vertex 6.779790 -16.597043 0.000000
      vertex 9.835518 -17.957541 0.000000
      vertex 12.275938 -12.476268 0.000000
    endloop
  endfacet
  facet normal 0.000000 0.000000 1.000000
    outer loop
      vertex 6.779790 -16.597043 0.000000
      vertex 12.275938 -12.476268 0.000000
      vertex 9.220210 -11.115770 0.000000
    endloop
  endfacet
  facet normal 0.406737 0.913545 -0.000000
    outer loop
      vertex 9.220210 -11.115770 0.000000
      vertex 9.220210 -11.115770 22.000000
      vertex 12.275938 -12.476268 22.000000
    endloop
  endfacet
  facet normal 0.406737 0.913545 0.000000
    outer loop
      vertex 9.220210 -11.115770 0.000000
      vertex 12.275938 -12.476268 22.000000
      vertex 12.275938 -12.476268 0.000000
    endloop
  endfacet
  facet normal 0.913545 -0.406737 0.000000
    outer loop
      vertex 12.275938 -12.476268 0.000000
      vertex 12.275938 -12.476268 22.000000
      vertex 9.835518 -17.957541 22.000000
    endloop
  endfacet
  facet normal 0.913545 -0.406737 0.000000
    outer loop
      vertex 12.275938 -12.476268 0.000000
      vertex 9.835518 -17.957541 22.000000
      vertex 9.835518 -17.957541 0.000000
    endloop
  endfacet
  facet normal -0.406737 -0.913545 0.000000
    outer loop
      vertex 9.835518 -17.957541 0.000000
      vertex 9.835518 -17.957541 22.000000
      vertex 6.779790 -16.597043 22.000000
    endloop
  endfacet
  facet normal -0.406737 -0.913545 0.000000
    outer loop
      vertex 9.835518 -17.957541 0.000000
      vertex 6.779790 -16.597043 22.000000
      vertex 6.779790 -16.597043 0.000000
    endloop
  endfacet
  facet normal -0.913545 0.406737 0.000000
    outer loop
      vertex 6.779790 -16.597043 0.000000
      vertex 6.779790 -16.597043 22.000000
      vertex 9.220210 -11.115770 22.000000
    endloop
  endfacet
  facet normal -0.913545 0.406737 0.000000
    outer loop
      vertex 6.779790 -16.597043 0.000000
      vertex 9.220210 -11.115770 22.000000
      vertex 9.220210 -11.115770 0.000000
    endloop
  endfacet
  facet normal 0.000000 0.000000 -1.000000
    outer loop
      vertex 11.679463 -12.282461 22.000000
      vertex 14.951280 -12.977908 22.000000
      vertex 13.703810 -18.846793 22.000000
    endloop
  endfacet
  facet normal 0.000000 -0.000000 -1.000000
    outer loop
      vertex 11.679463 -12.282461 22.000000
      vertex 13.703810 -18.846793 22.000000
      vertex 10.431993 -18.151347 22.000000
    endloop
  endfacet
  facet normal -0.000000 0.000000 1.000000
    outer loop
      vertex 10.431993 -18.151347 0.000000
      vertex 13.703810 -18.846793 0.000000
      vertex 14.951280 -12.977908 0.000000
    endloop
  endfacet
  facet normal 0.000000 0.000000 1.000000
    outer loop
      vertex 10.431993 -18.151347 0.000000
      vertex 14.951280 -12.977908 0.000000
      vertex 11.679463 -12.282461 0.000000
    endloop
  endfacet
  facet normal 0.207912 0.978148 -0.000000
    outer loop
      vertex 11.679463 -12.282461 0.000000
      vertex 11.679463 -12.282461 22.000000
      vertex 14.951280 -12.977908 22.000000
    endloop
  endfacet
  facet normal 0.207912 0.978148 0.000000
    outer loop
      vertex 11.679463 -12.282461 0.000000
      vertex 14.951280 -12.977908 22.000000
      vertex 14.951280 -12.977908 0.000000
    endloop
  endfacet
  facet normal 0.978148 -0.207912 0.000000
    outer loop
      vertex 14.951280 -12.977908 0.000000
      vertex 14.951280 -12.977908 22.000000
      vertex 13.703810 -18.846793 22.000000
    endloop
  endfacet
  facet normal 0.978148 -0.207912 0.000000
    outer loop
      vertex 14.951280 -12.977908 0.000000
      vertex 13.703810 -18.846793 22.000000
      vertex 13.703810 -18.846793 0.000000
    endloop
  endfacet
  facet normal -0.207912 -0.978148 0.000000
    outer loop
      vertex 13.703810 -18.846793 0.000000
      vertex 13.703810 -18.846793 22.000000
      vertex 10.431993 -18.151347 22.000000
    endloop
  endfacet
  facet normal -0.207912 -0.978148 0.000000
    outer loop
      vertex 13.703810 -18.846793 0.000000
      vertex 10.431993 -18.151347 22.000000
      vertex 10.431993 -18.151347 0.000000
    endloop
  endfacet
  facet normal -0.978148 0.207912 0.000000
    outer loop
      vertex 10.431993 -18.151347 0.000000
      vertex 10.431993 -18.151347 22.000000
      vertex 11.679463 -12.282461 22.000000
    endloop
  endfacet
  facet normal -0.978148 0.207912 0.000000
    outer loop
      vertex 10.431993 -18.151347 0.000000
      vertex 11.679463 -12.282461 22.000000
      vertex 11.679463 -12.282461 0.000000
    endloop
  endfacet
  facet normal 0.000000 0.000000 -1.000000
    outer loop
      vertex 14.327545 -12.912350 22.000000
      vertex 17.672455 -12.912350 22.000000
      vertex 17.672455 -18.912350 22.000000
    endloop
  endfacet
  facet normal 0.000000 0.000000 -1.000000
    outer loop
      vertex 14.327545 -12.912350 22.000000
      vertex 17.672455 -18.912350 22.000000
      vertex 14.327545 -18.912350 22.000000
    endloop
  endfacet
  facet normal 0.000000 0.000000 1.000000
    outer loop
      vertex 14.327545 -18.912350 0.000000
      vertex 17.672455 -18.912350 0.000000
      vertex 17.672455 -12.912350 0.000000
    endloop
  endfacet
  facet normal 0.000000 0.000000 1.000000
    outer loop
      vertex 14.327545 -18.912350 0.000000
      vertex 17.672455 -12.912350 0.000000
      vertex 14.327545 -12.912350 0.000000
    endloop
  endfacet
  facet normal 0.000000 1.000000 0.000000
    outer loop
      vertex 14.327545 -12.912350 0.000000
      vertex 14.327545 -12.912350 22.000000
      vertex 17.672455 -12.912350 22.000000
    endloop
  endfacet
  facet normal 0.000000 1.000000 0.000000
    outer loop
      vertex 14.327545 -12.912350 0.000000
      vertex 17.672455 -12.912350 22.000000
      vertex 17.672455 -12.912350 0.000000
    endloop
  endfacet
  facet normal 1.000000 0.000000 -0.000000
    outer loop
      vertex 17.672455 -12.912350 0.000000
      vertex 17.672455 -12.912350 22.000000
      vertex 17.672455 -18.912350 22.000000
    endloop
  endfacet
  facet normal 1.000000 0.000000 0.000000
    outer loop
      vertex 17.672455 -12.912350 0.000000
      vertex 17.672455 -18.912350 22.000000
      vertex 17.672455 -18.912350 0.000000
    endloop
  endfacet
  facet normal 0.000000 -1.000000 0.000000
    outer loop
      vertex 17.672455 -18.912350 0.000000
      vertex 17.672455 -18.912350 22.000000
      vertex 14.327545 -18.912350 22.000000
    endloop
  endfacet
  facet normal 0.000000 -1.000000 0.000000
    outer loop
      vertex 17.672455 -18.912350 0.000000
      vertex 14.327545 -18.912350 22.000000
      vertex 14.327545 -18.912350 0.000000
    endloop
  endfacet
  facet normal -1.000000 0.000000 0.000000
    outer loop
      vertex 14.327545 -18.912350 0.000000
      vertex 14.327545 -18.912350 22.000000
      vertex 14.327545 -12.912350 22.000000
    endloop
  endfacet
  facet normal -1.000000 0.000000 0.000000
    outer loop
      vertex 14.327545 -18.912350 0.000000
      vertex 14.327545 -12.912350 22.000000
      vertex 14.327545 -12.912350 0.000000
    endloop
  endfacet
  facet normal 0.000000 0.000000 -1.000000
    outer loop
      vertex 17.048720 -12.977908 22.000000
      vertex 20.320537 -12.282461 22.000000
      vertex 21.568007 -18.151347 22.000000
    endloop
  endfacet
  facet normal 0.000000 0.000000 -1.000000
    outer loop
      vertex 17.048720 -12.977908 22.000000
      vertex 21.568007 -18.151347 22.000000
      vertex 18.296190 -18.846793 22.000000
    endloop
  endfacet
  facet normal 0.000000 0.000000 1.000000
    outer loop
      vertex 18.296190 -18.846793 0.000000
      vertex 21.568007 -18.151347 0.000000
      vertex 20.320537 -12.282461 0.000000
    endloop
  endfacet
  facet normal 0.000000 -0.000000 1.000000
    outer loop
      vertex 18.296190 -18.846793 0.000000
      vertex 20.320537 -12.282461 0.000000
      vertex 17.048720 -12.977908 0.000000
    endloop
  endfacet
  facet normal -0.207912 0.978148 0.000000
    outer loop
      vertex 17.048720 -12.977908 0.000000
      vertex 17.048720 -12.977908 22.000000
      vertex 20.320537 -12.282461 22.000000
    endloop
  endfacet
  facet normal -0.207912 0.978148 0.000000
    outer loop
      vertex 17.048720 -12.977908 0.000000
      vertex 20.320537 -12.282461 22.000000
      vertex 20.320537 -12.282461 0.000000
    endloop
  endfacet
  facet normal 0.978148 0.207912 -0.000000
    outer loop
      vertex 20.320537 -12.282461 0.000000
      vertex 20.320537 -12.282461 22.000000
      vertex 21.568007 -18.151347 22.000000
    endloop
  endfacet
  facet normal 0.978148 0.207912 0.000000
    outer loop
      vertex 20.320537 -12.282461 0.000000
      vertex 21.568007 -18.151347 22.000000
      vertex 21.568007 -18.151347 0.000000
    endloop
  endfacet
  facet normal 0.207912 -0.978148 0.000000
    outer loop
      vertex 21.568007 -18.151347 0.000000
      vertex 21.568007 -18.151347 22.000000
      vertex 18.296190 -18.846793 22.000000
    endloop
  endfacet
  facet normal 0.207912 -0.978148 0.000000
    outer loop
      vertex 21.568007 -18.151347 0.000000
      vertex 18.296190 -18.846793 22.000000
      vertex 18.296190 -18.846793 0.000000
    endloop
  endfacet
  facet normal -0.978148 -0.207912 0.000000
    outer loop
      vertex 18.296190 -18.846793 0.000000
      vertex 18.296190 -18.846793 22.000000
      vertex 17.048720 -12.977908 22.000000
    endloop
  endfacet
  facet normal -0.978148 -0.207912 0.000000
    outer loop
      vertex 18.296190 -18.846793 0.000000
      vertex 17.048720 -12.977908 22.000000
      vertex 17.048720 -12.977908 0.000000
    endloop
  endfacet
  facet normal 0.000000 0.000000 -1.000000
    outer loop
      vertex 19.724062 -12.476268 22.000000
      vertex 22.779790 -11.115770 22.000000
      vertex 25.220210 -16.597043 22.000000
    endloop
  endfacet
  facet normal 0.000000 0.000000 -1.000000
    outer loop
      vertex 19.724062 -12.476268 22.000000
      vertex 25.220210 -16.597043 22.000000
      vertex 22.164482 -17.957541 22.000000
    endloop
  endfacet
  facet normal 0.000000 0.000000 1.000000
    outer loop
      vertex 22.164482 -17.957541 0.000000
      vertex 25.220210 -16.597043 0.000000
      vertex 22.779790 -11.115770 0.000000
    endloop
  endfacet
  facet normal 0.000000 -0.000000 1.000000
    outer loop
      vertex 22.164482 -17.957541 0.000000
      vertex 22.779790 -11.115770 0.000000
      vertex 19.724062 -12.476268 0.000000
    endloop
  endfacet
  facet normal -0.406737 0.913545 0.000000
    outer loop
      vertex 19.724062 -12.476268 0.000000
      vertex 19.724062 -12.476268 22.000000
      vertex 22.779790 -11.115770 22.000000
    endloop
  endfacet
  facet normal -0.406737 0.913545 0.000000
    outer loop
      vertex 19.724062 -12.476268 0.000000
      vertex 22.779790 -11.115770 22.000000
      vertex 22.779790 -11.115770 0.000000
    endloop
  endfacet
  facet normal 0.913545 0.406737 -0.000000
    outer loop
      vertex 22.779790 -11.115770 0.000000
      vertex 22.779790 -11.115770 22.000000
      vertex 25.220210 -16.597043 22.000000
    endloop
  endfacet
  facet normal 0.913545 0.406737 0.000000
    outer loop
      vertex 22.779790 -11.115770 0.000000
      vertex 25.220210 -16.597043 22.000000
      vertex 25.220210 -16.597043 0.000000
    endloop
  endfacet
  facet normal 0.406737 -0.913545 0.000000
    outer loop
      vertex 25.220210 -16.597043 0.000000
      vertex 25.220210 -16.597043 22.000000
      vertex 22.164482 -17.957541 22.000000
    endloop
  endfacet
  facet normal 0.406737 -0.913545 0.000000
    outer loop
      vertex 25.220210 -16.597043 0.000000
      vertex 22.164482 -17.957541 22.000000
      vertex 22.164482 -17.957541 0.000000
    endloop
  endfacet
  facet normal -0.913545 -0.406737 0.000000
    outer loop
      vertex 22.164482 -17.957541 0.000000
      vertex 22.164482 -17.957541 22.000000
      vertex 19.724062 -12.476268 22.000000
    endloop
  endfacet
  facet normal -0.913545 -0.406737 0.000000
    outer loop
      vertex 22.164482 -17.957541 0.000000
      vertex 19.724062 -12.476268 22.000000
      vertex 19.724062 -12.476268 0.000000
    endloop
  endfacet
  facet normal 0.000000 0.000000 -1.000000
    outer loop
      vertex 22.236644 -11.429355 22.000000
      vertex 24.942734 -9.463266 22.000000
      vertex 28.469445 -14.317368 22.000000
    endloop
  endfacet
  facet normal 0.000000 0.000000 -1.000000
    outer loop
      vertex 22.236644 -11.429355 22.000000
      vertex 28.469445 -14.317368 22.000000
      vertex 25.763356 -16.283457 22.000000
    endloop
  endfacet
  facet normal 0.000000 -0.000000 1.000000
    outer loop
      vertex 25.763356 -16.283457 0.000000
      vertex 28.469445 -14.317368 0.000000
      vertex 24.942734 -9.463266 0.000000
    endloop
  endfacet
  facet normal 0.000000 0.000000 1.000000
    outer loop
      vertex 25.763356 -16.283457 0.000000
      vertex 24.942734 -9.463266 0.000000
      vertex 22.236644 -11.429355 0.000000
    endloop
  endfacet
  facet normal -0.587785 0.809017 0.000000
    outer loop
      vertex 22.236644 -11.429355 0.000000
      vertex 22.236644 -11.429355 22.000000
      vertex 24.942734 -9.463266 22.000000
    endloop
  endfacet
  facet normal -0.587785 0.809017 0.000000
    outer loop
      vertex 22.236644 -11.429355 0.000000
      vertex 24.942734 -9.463266 22.000000
      vertex 24.942734 -9.463266 0.000000
    endloop
  endfacet
  facet normal 0.809017 0.587785 -0.000000
    outer loop
      vertex 24.942734 -9.463266 0.000000
      vertex 24.942734 -9.463266 22.000000
      vertex 28.469445 -14.317368 22.000000
    endloop
  endfacet
  facet normal 0.809017 0.587785 0.000000
    outer loop
      vertex 24.942734 -9.463266 0.000000
      vertex 28.469445 -14.317368 22.000000
      vertex 28.469445 -14.317368 0.000000
    endloop
  endfacet
  facet normal 0.587785 -0.809017 0.000000
    outer loop
      vertex 28.469445 -14.317368 0.000000
      vertex 28.469445 -14.317368 22.000000
      vertex 25.763356 -16.283457 22.000000
    endloop
  endfacet
  facet normal 0.587785 -0.809017 0.000000
    outer loop
      vertex 28.469445 -14.317368 0.000000
      vertex 25.763356 -16.283457 22.000000
      vertex 25.763356 -16.283457 0.000000
    endloop
  endfacet
  facet normal -0.809017 -0.587785 0.000000
    outer loop
      vertex 25.763356 -16.283457 0.000000
      vertex 25.763356 -16.283457 22.000000
      vertex 22.236644 -11.429355 22.000000
    endloop
  endfacet
  facet normal -0.809017 -0.587785 0.000000
    outer loop
      vertex 25.763356 -16.283457 0.000000
      vertex 22.236644 -11.429355 22.000000
      vertex 22.236644 -11.429355 0.000000
    endloop
  endfacet
  facet normal 0.000000 0.000000 -1.000000
    outer loop
      vertex 24.476655 -9.882925 22.000000
      vertex 26.714837 -7.397172 22.000000
      vertex 31.173706 -11.411956 22.000000
    endloop
  endfacet
  facet normal 0.000000 0.000000 -1.000000
    outer loop
      vertex 24.476655 -9.882925 22.000000
      vertex 31.173706 -11.411956 22.000000
      vertex 28.935524 -13.897709 22.000000
    endloop
  endfacet
  facet normal 0.000000 -0.000000 1.000000
    outer loop
      vertex 28.935524 -13.897709 0.000000
      vertex 31.173706 -11.411956 0.000000
      vertex 26.714837 -7.397172 0.000000
    endloop
  endfacet
  facet normal 0.000000 0.000000 1.000000
    outer loop
      vertex 28.935524 -13.897709 0.000000
      vertex 26.714837 -7.397172 0.000000
      vertex 24.476655 -9.882925 0.000000
    endloop
  endfacet
  facet normal -0.743145 0.669131 0.000000
    outer loop
      vertex 24.476655 -9.882925 0.000000
      vertex 24.476655 -9.882925 22.000000
      vertex 26.714837 -7.397172 22.000000
    endloop
  endfacet
  facet normal -0.743145 0.669131 0.000000
    outer loop
      vertex 24.476655 -9.882925 0.000000
      vertex 26.714837 -7.397172 22.000000
      vertex 26.714837 -7.397172 0.000000
    endloop
  endfacet
  facet normal 0.669131 0.743145 -0.000000
    outer loop
      vertex 26.714837 -7.397172 0.000000
      vertex 26.714837 -7.397172 22.000000
      vertex 31.173706 -11.411956 22.000000
    endloop
  endfacet
  facet normal 0.669131 0.743145 0.000000
    outer loop
      vertex 26.714837 -7.397172 0.000000
      vertex 31.173706 -11.411956 22.000000
      vertex 31.173706 -11.411956 0.000000
    endloop
  endfacet
  facet normal 0.743145 -0.669131 0.000000
    outer loop
      vertex 31.173706 -11.411956 0.000000
      vertex 31.173706 -11.411956 22.000000
      vertex 28.935524 -13.897709 22.000000
    endloop
  endfacet
  facet normal 0.743145 -0.669131 0.000000
    outer loop
      vertex 31.173706 -11.411956 0.000000
      vertex 28.935524 -13.897709 22.000000
      vertex 28.935524 -13.897709 0.000000
    endloop
  endfacet
  facet normal -0.669131 -0.743145 0.000000
    outer loop
      vertex 28.935524 -13.897709 0.000000
      vertex 28.935524 -13.897709 22.000000
      vertex 24.476655 -9.882925 22.000000
    endloop
  endfacet
  facet normal -0.669131 -0.743145 0.000000
    outer loop
      vertex 28.935524 -13.897709 0.000000
      vertex 24.476655 -9.882925 22.000000
      vertex 24.476655 -9.882925 0.000000
    endloop
  endfacet
  facet normal 0.000000 0.000000 -1.000000
    outer loop
      vertex 26.346196 -7.904564 22.000000
      vertex 28.018651 -5.007786 22.000000
      vertex 33.214804 -8.007786 22.000000
    endloop
  endfacet
  facet normal 0.000000 0.000000 -1.000000
    outer loop
      vertex 26.346196 -7.904564 22.000000
      vertex 33.214804 -8.007786 22.000000
      vertex 31.542348 -10.904564 22.000000
    endloop
  endfacet
  facet normal 0.000000 -0.000000 1.000000
    outer loop
      vertex 31.542348 -10.904564 0.000000
      vertex 33.214804 -8.007786 0.000000
      vertex 28.018651 -5.007786 0.000000
    endloop
  endfacet
  facet normal 0.000000 0.000000 1.000000
    outer loop
      vertex 31.542348 -10.904564 0.000000
      vertex 28.018651 -5.007786 0.000000
      vertex 26.346196 -7.904564 0.000000
    endloop
  endfacet
  facet normal -0.866025 0.500000 0.000000
    outer loop
      vertex 26.346196 -7.904564 0.000000
      vertex 26.346196 -7.904564 22.000000
      vertex 28.018651 -5.007786 22.000000
    endloop
  endfacet
  facet normal -0.866025 0.500000 0.000000
    outer loop
      vertex 26.346196 -7.904564 0.000000
      vertex 28.018651 -5.007786 22.000000
      vertex 28.018651 -5.007786 0.000000
    endloop
  endfacet
  facet normal 0.500000 0.866025 -0.000000
    outer loop
      vertex 28.018651 -5.007786 0.000000
      vertex 28.018651 -5.007786 22.000000
      vertex 33.214804 -8.007786 22.000000
    endloop
  endfacet
  facet normal 0.500000 0.866025 0.000000
    outer loop
      vertex 28.018651 -5.007786 0.000000
      vertex 33.214804 -8.007786 22.000000
      vertex 33.214804 -8.007786 0.000000
    endloop
  endfacet
  facet normal 0.866025 -0.500000 0.000000
    outer loop
      vertex 33.214804 -8.007786 0.000000
      vertex 33.214804 -8.007786 22.000000
      vertex 31.542348 -10.904564 22.000000
    endloop
  endfacet
  facet normal 0.866025 -0.500000 0.000000
    outer loop
      vertex 33.214804 -8.007786 0.000000
      vertex 31.542348 -10.904564 22.000000
      vertex 31.542348 -10.904564 0.000000
    endloop
  endfacet
  facet normal -0.500000 -0.866025 0.000000
    outer loop
      vertex 31.542348 -10.904564 0.000000
      vertex 31.542348 -10.904564 22.000000
      vertex 26.346196 -7.904564 22.000000
    endloop
  endfacet
  facet normal -0.500000 -0.866025 0.000000
    outer loop
      vertex 31.542348 -10.904564 0.000000
      vertex 26.346196 -7.904564 22.000000
      vertex 26.346196 -7.904564 0.000000
    endloop
  endfacet
  facet normal 0.000000 0.000000 -1.000000
    outer loop
      vertex 27.763558 -5.580735 22.000000
      vertex 28.797192 -2.399536 22.000000
      vertex 34.503531 -4.253638 22.000000
    endloop
  endfacet
  facet normal 0.000000 0.000000 -1.000000
    outer loop
      vertex 27.763558 -5.580735 22.000000
      vertex 34.503531 -4.253638 22.000000
      vertex 33.469897 -7.434837 22.000000
    endloop
  endfacet
  facet normal 0.000000 -0.000000 1.000000
    outer loop
      vertex 33.469897 -7.434837 0.000000
      vertex 34.503531 -4.253638 0.000000
      vertex 28.797192 -2.399536 0.000000
    endloop
  endfacet
  facet normal 0.000000 0.000000 1.000000
    outer loop
      vertex 33.469897 -7.434837 0.000000
      vertex 28.797192 -2.399536 0.000000
      vertex 27.763558 -5.580735 0.000000
    endloop
  endfacet
  facet normal -0.951057 0.309017 0.000000
    outer loop
      vertex 27.763558 -5.580735 0.000000
      vertex 27.763558 -5.580735 22.000000
      vertex 28.797192 -2.399536 22.000000
    endloop
  endfacet
  facet normal -0.951057 0.309017 0.000000
    outer loop
      vertex 27.763558 -5.580735 0.000000
      vertex 28.797192 -2.399536 22.000000
      vertex 28.797192 -2.399536 0.000000
    endloop
  endfacet
  facet normal 0.309017 0.951057 -0.000000
    outer loop
      vertex 28.797192 -2.399536 0.000000
      vertex 28.797192 -2.399536 22.000000
      vertex 34.503531 -4.253638 22.000000
    endloop
  endfacet
  facet normal 0.309017 0.951057 0.000000
    outer loop
      vertex 28.797192 -2.399536 0.000000
      vertex 34.503531 -4.253638 22.000000
      vertex 34.503531 -4.253638 0.000000
    endloop
  endfacet
  facet normal 0.951057 -0.309017 0.000000
    outer loop
      vertex 34.503531 -4.253638 0.000000
      vertex 34.503531 -4.253638 22.000000
      vertex 33.469897 -7.434837 22.000000
    endloop
  endfacet
  facet normal 0.951057 -0.309017 0.000000
    outer loop
      vertex 34.503531 -4.253638 0.000000
      vertex 33.469897 -7.434837 22.000000
      vertex 33.469897 -7.434837 0.000000
    endloop
  endfacet
  facet normal -0.309017 -0.951057 0.000000
    outer loop
      vertex 33.469897 -7.434837 0.000000
      vertex 33.469897 -7.434837 22.000000
      vertex 27.763558 -5.580735 22.000000
    endloop
  endfacet
  facet normal -0.309017 -0.951057 0.000000
    outer loop
      vertex 33.469897 -7.434837 0.000000
      vertex 27.763558 -5.580735 22.000000
      vertex 27.763558 -5.580735 0.000000
    endloop
  endfacet
  facet normal 0.000000 0.000000 -1.000000
    outer loop
      vertex 28.666796 -3.013002 22.000000
      vertex 29.016434 0.313585 22.000000
      vertex 34.983566 -0.313585 22.000000
    endloop
  endfacet
  facet normal 0.000000 0.000000 -1.000000
    outer loop
      vertex 28.666796 -3.013002 22.000000
      vertex 34.983566 -0.313585 22.000000
      vertex 34.633927 -3.640172 22.000000
    endloop
  endfacet
  facet normal 0.000000 -0.000000 1.000000
    outer loop
      vertex 34.633927 -3.640172 0.000000
      vertex 34.983566 -0.313585 0.000000
      vertex 29.016434 0.313585 0.000000
    endloop
  endfacet
  facet normal 0.000000 0.000000 1.000000
    outer loop
      vertex 34.633927 -3.640172 0.000000
      vertex 29.016434 0.313585 0.000000
      vertex 28.666796 -3.013002 0.000000
    endloop
  endfacet
  facet normal -0.994522 0.104528 0.000000
    outer loop
      vertex 28.666796 -3.013002 0.000000
      vertex 28.666796 -3.013002 22.000000
      vertex 29.016434 0.313585 22.000000
    endloop
  endfacet
  facet normal -0.994522 0.104528 0.000000
    outer loop
      vertex 28.666796 -3.013002 0.000000
      vertex 29.016434 0.313585 22.000000
      vertex 29.016434 0.313585 0.000000
    endloop
  endfacet
  facet normal 0.104528 0.994522 -0.000000
    outer loop
      vertex 29.016434 0.313585 0.000000
      vertex 29.016434 0.313585 22.000000
      vertex 34.983566 -0.313585 22.000000
    endloop
  endfacet
  facet normal 0.104528 0.994522 0.000000
    outer loop
      vertex 29.016434 0.313585 0.000000
      vertex 34.983566 -0.313585 22.000000
      vertex 34.983566 -0.313585 0.000000
    endloop
  endfacet
  facet normal 0.994522 -0.104528 0.000000
    outer loop
      vertex 34.983566 -0.313585 0.000000
      vertex 34.983566 -0.313585 22.000000
      vertex 34.633927 -3.640172 22.000000
    endloop
  endfacet
  facet normal 0.994522 -0.104528 0.000000
    outer loop
      vertex 34.983566 -0.313585 0.000000
      vertex 34.633927 -3.640172 22.000000
      vertex 34.633927 -3.640172 0.000000
    endloop
  endfacet
  facet normal -0.104528 -0.994522 0.000000
    outer loop
      vertex 34.633927 -3.640172 0.000000
      vertex 34.633927 -3.640172 22.000000
      vertex 28.666796 -3.013002 22.000000
    endloop
  endfacet
  facet normal -0.104528 -0.994522 0.000000
    outer loop
      vertex 34.633927 -3.640172 0.000000
      vertex 28.666796 -3.013002 22.000000
      vertex 28.666796 -3.013002 0.000000
    endloop
  endfacet
  facet normal 0.000000 0.000000 -1.000000
    outer loop
      vertex 29.016434 -0.313585 22.000000
      vertex 28.666796 3.013002 22.000000
      vertex 34.633927 3.640172 22.000000
    endloop
  endfacet
  facet normal 0.000000 0.000000 -1.000000
    outer loop
      vertex 29.016434 -0.313585 22.000000
      vertex 34.633927 3.640172 22.000000
      vertex 34.983566 0.313585 22.000000
    endloop
  endfacet
  facet normal 0.000000 0.000000 1.000000
    outer loop
      vertex 34.983566 0.313585 0.000000
      vertex 34.633927 3.640172 0.000000
      vertex 28.666796 3.013002 0.000000
    endloop
  endfacet
  facet normal 0.000000 0.000000 1.000000
    outer loop
      vertex 34.983566 0.313585 0.000000
      vertex 28.666796 3.013002 0.000000
      vertex 29.016434 -0.313585 0.000000
    endloop
  endfacet
  facet normal -0.994522 -0.104528 0.000000
    outer loop
      vertex 29.016434 -0.313585 0.000000
      vertex 29.016434 -0.313585 22.000000
      vertex 28.666796 3.013002 22.000000
    endloop
  endfacet
  facet normal -0.994522 -0.104528 0.000000
    outer loop
      vertex 29.016434 -0.313585 0.000000
      vertex 28.666796 3.013002 22.000000
      vertex 28.666796 3.013002 0.000000
    endloop
  endfacet
  facet normal -0.104528 0.994522 0.000000
    outer loop
      vertex 28.666796 3.013002 0.000000
      vertex 28.666796 3.013002 22.000000
      vertex 34.633927 3.640172 22.000000
    endloop
  endfacet
  facet normal -0.104528 0.994522 0.000000
    outer loop
      vertex 28.666796 3.013002 0.000000
      vertex 34.633927 3.640172 22.000000
      vertex 34.633927 3.640172 0.000000
    endloop
  endfacet
  facet normal 0.994522 0.104528 -0.000000
    outer loop
      vertex 34.633927 3.640172 0.000000
      vertex 34.633927 3.640172 22.000000
      vertex 34.983566 0.313585 22.000000
    endloop
  endfacet
  facet normal 0.994522 0.104528 0.000000
    outer loop
      vertex 34.633927 3.640172 0.000000
      vertex 34.983566 0.313585 22.000000
      vertex 34.983566 0.313585 0.000000
    endloop
  endfacet
  facet normal 0.104528 -0.994522 0.000000
    outer loop
      vertex 34.983566 0.313585 0.000000
      vertex 34.983566 0.313585 22.000000
      vertex 29.016434 -0.313585 22.000000
    endloop
  endfacet
  facet normal 0.104528 -0.994522 0.000000
    outer loop
      vertex 34.983566 0.313585 0.000000
      vertex 29.016434 -0.313585 22.000000
      vertex 29.016434 -0.313585 0.000000
    endloop
  endfacet
  facet normal 0.000000 0.000000 -1.000000
    outer loop
      vertex 28.797192 2.399536 22.000000
      vertex 27.763558 5.580735 22.000000
      vertex 33.469897 7.434837 22.000000
    endloop
  endfacet
  facet normal 0.000000 0.000000 -1.000000
    outer loop
      vertex 28.797192 2.399536 22.000000
      vertex 33.469897 7.434837 22.000000
      vertex 34.503531 4.253638 22.000000
    endloop
  endfacet
  facet normal 0.000000 0.000000 1.000000
    outer loop
      vertex 34.503531 4.253638 0.000000
      vertex 33.469897 7.434837 0.000000
      vertex 27.763558 5.580735 0.000000
    endloop
  endfacet
  facet normal 0.000000 0.000000 1.000000
    outer loop
      vertex 34.503531 4.253638 0.000000
      vertex 27.763558 5.580735 0.000000
      vertex 28.797192 2.399536 0.000000
    endloop
  endfacet
  facet normal -0.951057 -0.309017 0.000000
    outer loop
      vertex 28.797192 2.399536 0.000000
      vertex 28.797192 2.399536 22.000000
      vertex 27.763558 5.580735 22.000000
    endloop
  endfacet
  facet normal -0.951057 -0.309017 0.000000
    outer loop
      vertex 28.797192 2.399536 0.000000
      vertex 27.763558 5.580735 22.000000
      vertex 27.763558 5.580735 0.000000
    endloop
  endfacet
  facet normal -0.309017 0.951057 0.000000
    outer loop
      vertex 27.763558 5.580735 0.000000
      vertex 27.763558 5.580735 22.000000
      vertex 33.469897 7.434837 22.000000
    endloop
  endfacet
  facet normal -0.309017 0.951057 0.000000
    outer loop
      vertex 27.763558 5.580735 0.000000
      vertex 33.469897 7.434837 22.000000
      vertex 33.469897 7.434837 0.000000
    endloop
  endfacet
  facet normal 0.951057 0.309017 -0.000000
    outer loop
      vertex 33.469897 7.434837 0.000000
      vertex 33.469897 7.434837 22.000000
      vertex 34.503531 4.253638 22.000000
    endloop
  endfacet
  facet normal 0.951057 0.309017 0.000000
    outer loop
      vertex 33.469897 7.434837 0.000000
      vertex 34.503531 4.253638 22.000000
      vertex 34.503531 4.253638 0.000000
    endloop
  endfacet
  facet normal 0.309017 -0.951057 0.000000
    outer loop
      vertex 34.503531 4.253638 0.000000
      vertex 34.503531 4.253638 22.000000
      vertex 28.797192 2.399536 22.000000
    endloop
  endfacet
  facet normal 0.309017 -0.951057 0.000000
    outer loop
      vertex 34.503531 4.253638 0.000000
      vertex 28.797192 2.399536 22.000000
      vertex 28.797192 2.399536 0.000000
    endloop
  endfacet
  facet normal 0.000000 0.000000 -1.000000
    outer loop
      vertex 28.018651 5.007786 22.000000
      vertex 26.346196 7.904564 22.000000
      vertex 31.542348 10.904564 22.000000
    endloop
  endfacet
  facet normal 0.000000 0.000000 -1.000000
    outer loop
      vertex 28.018651 5.007786 22.000000
      vertex 31.542348 10.904564 22.000000
      vertex 33.214804 8.007786 22.000000
    endloop
  endfacet
  facet normal 0.000000 0.000000 1.000000
    outer loop
      vertex 33.214804 8.007786 0.000000
      vertex 31.542348 10.904564 0.000000
      vertex 26.346196 7.904564 0.000000
    endloop
  endfacet
  facet normal 0.000000 0.000000 1.000000
    outer loop
      vertex 33.214804 8.007786 0.000000
      vertex 26.346196 7.904564 0.000000
      vertex 28.018651 5.007786 0.000000
    endloop
  endfacet
  facet normal -0.866025 -0.500000 0.000000
    outer loop
      vertex 28.018651 5.007786 0.000000
      vertex 28.018651 5.007786 22.000000
      vertex 26.346196 7.904564 22.000000
    endloop
  endfacet
  facet normal -0.866025 -0.500000 0.000000
    outer loop
      vertex 28.018651 5.007786 0.000000
      vertex 26.346196 7.904564 22.000000
      vertex 26.346196 7.904564 0.000000
    endloop
  endfacet
  facet normal -0.500000 0.866025 0.000000
    outer loop
      vertex 26.346196 7.904564 0.000000
      vertex 26.346196 7.904564 22.000000
      vertex 31.542348 10.904564 22.000000
    endloop
  endfacet
  facet normal -0.500000 0.866025 0.000000
    outer loop
      vertex 26.346196 7.904564 0.000000
      vertex 31.542348 10.904564 22.000000
      vertex 31.542348 10.904564 0.000000
    endloop
  endfacet
  facet normal 0.866025 0.500000 -0.000000
    outer loop
      vertex 31.542348 10.904564 0.000000
      vertex 31.542348 10.904564 22.000000
      vertex 33.214804 8.007786 22.000000
    endloop
  endfacet
  facet normal 0.866025 0.500000 0.000000
    outer loop
      vertex 31.542348 10.904564 0.000000
      vertex 33.214804 8.007786 22.000000
      vertex 33.214804 8.007786 0.000000
    endloop
  endfacet
  facet normal 0.500000 -0.866025 0.000000
    outer loop
      vertex 33.214804 8.007786 0.000000
      vertex 33.214804 8.007786 22.000000
      vertex 28.018651 5.007786 22.000000
    endloop
  endfacet
  facet normal 0.500000 -0.866025 0.000000
    outer loop
      vertex 33.214804 8.007786 0.000000
      vertex 28.018651 5.007786 22.000000
      vertex 28.018651 5.007786 0.000000
    endloop
  endfacet
  facet normal 0.000000 0.000000 -1.000000
    outer loop
      vertex 26.714837 7.397172 22.000000
      vertex 24.476655 9.882925 22.000000
      vertex 28.935524 13.897709 22.000000
    endloop
  endfacet
  facet normal 0.000000 0.000000 -1.000000
    outer loop
      vertex 26.714837 7.397172 22.000000
      vertex 28.935524 13.897709 22.000000
      vertex 31.173706 11.411956 22.000000
    endloop
  endfacet
  facet normal 0.000000 0.000000 1.000000
    outer loop
      vertex 31.173706 11.411956 0.000000
      vertex 28.935524 13.897709 0.000000
      vertex 24.476655 9.882925 0.000000
    endloop
  endfacet
  facet normal 0.000000 0.000000 1.000000
    outer loop
      vertex 31.173706 11.411956 0.000000
      vertex 24.476655 9.882925 0.000000
      vertex 26.714837 7.397172 0.000000
    endloop
  endfacet
  facet normal -0.743145 -0.669131 0.000000
    outer loop
      vertex 26.714837 7.397172 0.000000
      vertex 26.714837 7.397172 22.000000
      vertex 24.476655 9.882925 22.000000
    endloop
  endfacet
  facet normal -0.743145 -0.669131 0.000000
    outer loop
      vertex 26.714837 7.397172 0.000000
      vertex 24.476655 9.882925 22.000000
      vertex 24.476655 9.882925 0.000000
    endloop
  endfacet
  facet normal -0.669131 0.743145 0.000000
    outer loop
      vertex 24.476655 9.882925 0.000000
      vertex 24.476655 9.882925 22.000000
      vertex 28.935524 13.897709 22.000000
    endloop
  endfacet
  facet normal -0.669131 0.743145 0.000000
    outer loop
      vertex 24.476655 9.882925 0.000000
      vertex 28.935524 13.897709 22.000000
      vertex 28.935524 13.897709 0.000000
    endloop
  endfacet
  facet normal 0.743145 0.669131 -0.000000
    outer loop
      vertex 28.935524 13.897709 0.000000
      vertex 28.935524 13.897709 22.000000
      vertex 31.173706 11.411956 22.000000
    endloop
  endfacet
  facet normal 0.743145 0.669131 0.000000
    outer loop
      vertex 28.935524 13.897709 0.000000
      vertex 31.173706 11.411956 22.000000
      vertex 31.173706 11.411956 0.000000
    endloop
  endfacet
  facet normal 0.669131 -0.743145 0.000000
    outer loop
      vertex 31.173706 11.411956 0.000000
      vertex 31.173706 11.411956 22.000000
      vertex 26.714837 7.397172 22.000000
    endloop
  endfacet
  facet normal 0.669131 -0.743145 0.000000
    outer loop
      vertex 31.173706 11.411956 0.000000
      vertex 26.714837 7.397172 22.000000
      vertex 26.714837 7.397172 0.000000
    endloop
  endfacet
  facet normal 0.000000 0.000000 -1.000000
    outer loop
      vertex 24.942734 9.463266 22.000000
      vertex 22.236644 11.429355 22.000000
      vertex 25.763356 16.283457 22.000000
    endloop
  endfacet
  facet normal 0.000000 0.000000 -1.000000
    outer loop
      vertex 24.942734 9.463266 22.000000
      vertex 25.763356 16.283457 22.000000
      vertex 28.469445 14.317368 22.000000
    endloop
  endfacet
  facet normal 0.000000 0.000000 1.000000
    outer loop
      vertex 28.469445 14.317368 0.000000
      vertex 25.763356 16.283457 0.000000
      vertex 22.236644 11.429355 0.000000
    endloop
  endfacet
  facet normal 0.000000 0.000000 1.000000
    outer loop
      vertex 28.469445 14.317368 0.000000
      vertex 22.236644 11.429355 0.000000
      vertex 24.942734 9.463266 0.000000
    endloop
  endfacet
  facet normal -0.587785 -0.809017 0.000000
    outer loop
      vertex 24.942734 9.463266 0.000000
      vertex 24.942734 9.463266 22.000000
      vertex 22.236644 11.429355 22.000000
    endloop
  endfacet
  facet normal -0.587785 -0.809017 0.000000
    outer loop
      vertex 24.942734 9.463266 0.000000
      vertex 22.236644 11.429355 22.000000
      vertex 22.236644 11.429355 0.000000
    endloop
  endfacet
  facet normal -0.809017 0.587785 0.000000
    outer loop
      vertex 22.236644 11.429355 0.000000
      vertex 22.236644 11.429355 22.000000
      vertex 25.763356 16.283457 22.000000
    endloop
  endfacet
  facet normal -0.809017 0.587785 0.000000
    outer loop
      vertex 22.236644 11.429355 0.000000
      vertex 25.763356 16.283457 22.000000
      vertex 25.763356 16.283457 0.000000
    endloop
  endfacet
  facet normal 0.587785 0.809017 -0.000000
    outer loop
      vertex 25.763356 16.283457 0.000000
      vertex 25.763356 16.283457 22.000000
      vertex 28.469445 14.317368 22.000000
    endloop
  endfacet
  facet normal 0.587785 0.809017 0.000000
    outer loop
      vertex 25.763356 16.283457 0.000000
      vertex 28.469445 14.317368 22.000000
      vertex 28.469445 14.317368 0.000000
    endloop
  endfacet
  facet normal 0.809017 -0.587785 0.000000
    outer loop
      vertex 28.469445 14.317368 0.000000
      vertex 28.469445 14.317368 22.000000
      vertex 24.942734 9.463266 22.000000
    endloop
  endfacet
  facet normal 0.809017 -0.587785 0.000000
    outer loop
      vertex 28.469445 14.317368 0.000000
      vertex 24.942734 9.463266 22.000000
      vertex 24.942734 9.463266 0.000000
    endloop
  endfacet
  facet normal 0.000000 0.000000 -1.000000
    outer loop
      vertex 0.000000 32.600000 22.000000
      vertex -12.800000 32.600000 22.000000
      vertex -12.800000 37.400000 22.000000
    endloop
  endfacet
  facet normal 0.000000 0.000000 -1.000000
    outer loop
      vertex 0.000000 32.600000 22.000000
      vertex -12.800000 37.400000 22.000000
      vertex 0.000000 37.400000 22.000000
    endloop
  endfacet
  facet normal 0.000000 0.000000 1.000000
    outer loop
      vertex 0.000000 37.400000 0.000000
      vertex -12.800000 37.400000 0.000000
      vertex -12.800000 32.600000 0.000000
    endloop
  endfacet
  facet normal 0.000000 0.000000 1.000000
    outer loop
      vertex 0.000000 37.400000 0.000000
      vertex -12.800000 32.600000 0.000000
      vertex 0.000000 32.600000 0.000000
    endloop
  endfacet
  facet normal 0.000000 -1.000000 0.000000
    outer loop
      vertex 0.000000 32.600000 0.000000
      vertex 0.000000 32.600000 22.000000
      vertex -12.800000 32.600000 22.000000
    endloop
  endfacet
  facet normal 0.000000 -1.000000 0.000000
    outer loop
      vertex 0.000000 32.600000 0.000000
      vertex -12.800000 32.600000 22.000000
      vertex -12.800000 32.600000 0.000000
    endloop
  endfacet
  facet normal -1.000000 0.000000 0.000000
    outer loop
      vertex -12.800000 32.600000 0.000000
      vertex -12.800000 32.600000 22.000000
      vertex -12.800000 37.400000 22.000000
    endloop
  endfacet
  facet normal -1.000000 0.000000 0.000000
    outer loop
      vertex -12.800000 32.600000 0.000000
      vertex -12.800000 37.400000 22.000000
      vertex -12.800000 37.400000 0.000000
    endloop
  endfacet
  facet normal 0.000000 1.000000 0.000000
    outer loop
      vertex -12.800000 37.400000 0.000000
      vertex -12.800000 37.400000 22.000000
      vertex 0.000000 37.400000 22.000000
    endloop
  endfacet
  facet normal 0.000000 1.000000 0.000000
    outer loop
      vertex -12.800000 37.400000 0.000000
      vertex 0.000000 37.400000 22.000000
      vertex 0.000000 37.400000 0.000000
    endloop
  endfacet
  facet normal 1.000000 0.000000 -0.000000
    outer loop
      vertex 0.000000 37.400000 0.000000
      vertex 0.000000 37.400000 22.000000
      vertex 0.000000 32.600000 22.000000
    endloop
  endfacet
  facet normal 1.000000 0.000000 0.000000
    outer loop
      vertex 0.000000 37.400000 0.000000
      vertex 0.000000 32.600000 22.000000
      vertex 0.000000 32.600000 0.000000
    endloop
  endfacet
  facet normal 0.000000 0.000000 -1.000000
    outer loop
      vertex -13.083575 32.616812 22.000000
      vertex -14.960835 32.840187 22.000000
      vertex -14.393684 37.606563 22.000000
    endloop
  endfacet
  facet normal 0.000000 0.000000 -1.000000
    outer loop
      vertex -13.083575 32.616812 22.000000
      vertex -14.393684 37.606563 22.000000
      vertex -12.516425 37.383188 22.000000
    endloop
  endfacet
  facet normal 0.000000 0.000000 1.000000
    outer loop
      vertex -12.516425 37.383188 0.000000
      vertex -14.393684 37.606563 0.000000
      vertex -14.960835 32.840187 0.000000
    endloop
  endfacet
  facet normal 0.000000 0.000000 1.000000
    outer loop
      vertex -12.516425 37.383188 0.000000
      vertex -14.960835 32.840187 0.000000
      vertex -13.083575 32.616812 0.000000
    endloop
  endfacet
  facet normal -0.118156 -0.992995 0.000000
    outer loop
      vertex -13.083575 32.616812 0.000000
      vertex -13.083575 32.616812 22.000000
      vertex -14.960835 32.840187 22.000000
    endloop
  endfacet
  facet normal -0.118156 -0.992995 0.000000
    outer loop
      vertex -13.083575 32.616812 0.000000
      vertex -14.960835 32.840187 22.000000
      vertex -14.960835 32.840187 0.000000
    endloop
  endfacet
  facet normal -0.992995 0.118156 0.000000
    outer loop
      vertex -14.960835 32.840187 0.000000
      vertex -14.960835 32.840187 22.000000
      vertex -14.393684 37.606563 22.000000
    endloop
  endfacet
  facet normal -0.992995 0.118156 0.000000
    outer loop
      vertex -14.960835 32.840187 0.000000
      vertex -14.393684 37.606563 22.000000
      vertex -14.393684 37.606563 0.000000
    endloop
  endfacet
  facet normal 0.118156 0.992995 -0.000000
    outer loop
      vertex -14.393684 37.606563 0.000000
      vertex -14.393684 37.606563 22.000000
      vertex -12.516425 37.383188 22.000000
    endloop
  endfacet
  facet normal 0.118156 0.992995 0.000000
    outer loop
      vertex -14.393684 37.606563 0.000000
      vertex -12.516425 37.383188 22.000000
      vertex -12.516425 37.383188 0.000000
    endloop
  endfacet
  facet normal 0.992995 -0.118156 0.000000
    outer loop
      vertex -12.516425 37.383188 0.000000
      vertex -12.516425 37.383188 22.000000
      vertex -13.083575 32.616812 22.000000
    endloop
  endfacet
  facet normal 0.992995 -0.118156 0.000000
    outer loop
      vertex -12.516425 37.383188 0.000000
      vertex -13.083575 32.616812 22.000000
      vertex -13.083575 32.616812 0.000000
    endloop
  endfacet
  facet normal 0.000000 0.000000 -1.000000
    outer loop
      vertex -15.512149 32.973273 22.000000
      vertex -17.284575 33.630924 22.000000
      vertex -15.614795 38.131127 22.000000
    endloop
  endfacet
  facet normal 0.000000 0.000000 -1.000000
    outer loop
      vertex -15.512149 32.973273 22.000000
      vertex -15.614795 38.131127 22.000000
      vertex -13.842369 37.473477 22.000000
    endloop
  endfacet
  facet normal 0.000000 0.000000 1.000000
    outer loop
      vertex -13.842369 37.473477 0.000000
      vertex -15.614795 38.131127 0.000000
      vertex -17.284575 33.630924 0.000000
    endloop
  endfacet
  facet normal 0.000000 0.000000 1.000000
    outer loop
      vertex -13.842369 37.473477 0.000000
      vertex -17.284575 33.630924 0.000000
      vertex -15.512149 32.973273 0.000000
    endloop
  endfacet
  facet normal -0.347871 -0.937542 0.000000
    outer loop
      vertex -15.512149 32.973273 0.000000
      vertex -15.512149 32.973273 22.000000
      vertex -17.284575 33.630924 22.000000
    endloop
  endfacet
  facet normal -0.347871 -0.937542 0.000000
    outer loop
      vertex -15.512149 32.973273 0.000000
      vertex -17.284575 33.630924 22.000000
      vertex -17.284575 33.630924 0.000000
    endloop
  endfacet
  facet normal -0.937542 0.347871 0.000000
    outer loop
      vertex -17.284575 33.630924 0.000000
      vertex -17.284575 33.630924 22.000000
      vertex -15.614795 38.131127 22.000000
    endloop
  endfacet
  facet normal -0.937542 0.347871 0.000000
    outer loop
      vertex -17.284575 33.630924 0.000000
      vertex -15.614795 38.131127 22.000000
      vertex -15.614795 38.131127 0.000000
    endloop
  endfacet
  facet normal 0.347871 0.937542 -0.000000
    outer loop
      vertex -15.614795 38.131127 0.000000
      vertex -15.614795 38.131127 22.000000
      vertex -13.842369 37.473477 22.000000
    endloop
  endfacet
  facet normal 0.347871 0.937542 0.000000
    outer loop
      vertex -15.614795 38.131127 0.000000
      vertex -13.842369 37.473477 22.000000
      vertex -13.842369 37.473477 0.000000
    endloop
  endfacet
  facet normal 0.937542 -0.347871 0.000000
    outer loop
      vertex -13.842369 37.473477 0.000000
      vertex -13.842369 37.473477 22.000000
      vertex -15.512149 32.973273 22.000000
    endloop
  endfacet
  facet normal 0.937542 -0.347871 0.000000
    outer loop
      vertex -13.842369 37.473477 0.000000
      vertex -15.512149 32.973273 22.000000
      vertex -15.512149 32.973273 0.000000
    endloop
  endfacet
  facet normal 0.000000 0.000000 -1.000000
    outer loop
      vertex -17.789267 33.889664 22.000000
      vertex -19.357881 34.944864 22.000000
      vertex -16.678718 38.927588 22.000000
    endloop
  endfacet
  facet normal 0.000000 0.000000 -1.000000
    outer loop
      vertex -17.789267 33.889664 22.000000
      vertex -16.678718 38.927588 22.000000
      vertex -15.110104 37.872387 22.000000
    endloop
  endfacet
  facet normal 0.000000 0.000000 1.000000
    outer loop
      vertex -15.110104 37.872387 0.000000
      vertex -16.678718 38.927588 0.000000
      vertex -19.357881 34.944864 0.000000
    endloop
  endfacet
  facet normal 0.000000 0.000000 1.000000
    outer loop
      vertex -15.110104 37.872387 0.000000
      vertex -19.357881 34.944864 0.000000
      vertex -17.789267 33.889664 0.000000
    endloop
  endfacet
  facet normal -0.558159 -0.829734 0.000000
    outer loop
      vertex -17.789267 33.889664 0.000000
      vertex -17.789267 33.889664 22.000000
      vertex -19.357881 34.944864 22.000000
    endloop
  endfacet
  facet normal -0.558159 -0.829734 0.000000
    outer loop
      vertex -17.789267 33.889664 0.000000
      vertex -19.357881 34.944864 22.000000
      vertex -19.357881 34.944864 0.000000
    endloop
  endfacet
  facet normal -0.829734 0.558159 0.000000
    outer loop
      vertex -19.357881 34.944864 0.000000
      vertex -19.357881 34.944864 22.000000
      vertex -16.678718 38.927588 22.000000
    endloop
  endfacet
  facet normal -0.829734 0.558159 0.000000
    outer loop
      vertex -19.357881 34.944864 0.000000
      vertex -16.678718 38.927588 22.000000
      vertex -16.678718 38.927588 0.000000
    endloop
  endfacet
  facet normal 0.558159 0.829734 -0.000000
    outer loop
      vertex -16.678718 38.927588 0.000000
      vertex -16.678718 38.927588 22.000000
      vertex -15.110104 37.872387 22.000000
    endloop
  endfacet
  facet normal 0.558159 0.829734 0.000000
    outer loop
      vertex -16.678718 38.927588 0.000000
      vertex -15.110104 37.872387 22.000000
      vertex -15.110104 37.872387 0.000000
    endloop
  endfacet
  facet normal 0.829734 -0.558159 0.000000
    outer loop
      vertex -15.110104 37.872387 0.000000
      vertex -15.110104 37.872387 22.000000
      vertex -17.789267 33.889664 22.000000
    endloop
  endfacet
  facet normal 0.829734 -0.558159 0.000000
    outer loop
      vertex -15.110104 37.872387 0.000000
      vertex -17.789267 33.889664 22.000000
      vertex -17.789267 33.889664 0.000000
    endloop
  endfacet
  facet normal 0.000000 0.000000 -1.000000
    outer loop
      vertex -19.787765 35.314810 22.000000
      vertex -21.064970 36.708634 22.000000
      vertex -17.526038 39.951467 22.000000
    endloop
  endfacet
  facet normal 0.000000 0.000000 -1.000000
    outer loop
      vertex -19.787765 35.314810 22.000000
      vertex -17.526038 39.951467 22.000000
      vertex -16.248834 38.557643 22.000000
    endloop
  endfacet
  facet normal 0.000000 0.000000 1.000000
    outer loop
      vertex -16.248834 38.557643 0.000000
      vertex -17.526038 39.951467 0.000000
      vertex -21.064970 36.708634 0.000000
    endloop
  endfacet
  facet normal 0.000000 0.000000 1.000000
    outer loop
      vertex -16.248834 38.557643 0.000000
      vertex -21.064970 36.708634 0.000000
      vertex -19.787765 35.314810 0.000000
    endloop
  endfacet
  facet normal -0.737277 -0.675590 0.000000
    outer loop
      vertex -19.787765 35.314810 0.000000
      vertex -19.787765 35.314810 22.000000
      vertex -21.064970 36.708634 22.000000
    endloop
  endfacet
  facet normal -0.737277 -0.675590 0.000000
    outer loop
      vertex -19.787765 35.314810 0.000000
      vertex -21.064970 36.708634 22.000000
      vertex -21.064970 36.708634 0.000000
    endloop
  endfacet
  facet normal -0.675590 0.737277 0.000000
    outer loop
      vertex -21.064970 36.708634 0.000000
      vertex -21.064970 36.708634 22.000000
      vertex -17.526038 39.951467 22.000000
    endloop
  endfacet
  facet normal -0.675590 0.737277 0.000000
    outer loop
      vertex -21.064970 36.708634 0.000000
      vertex -17.526038 39.951467 22.000000
      vertex -17.526038 39.951467 0.000000
    endloop
  endfacet
  facet normal 0.737277 0.675590 -0.000000
    outer loop
      vertex -17.526038 39.951467 0.000000
      vertex -17.526038 39.951467 22.000000
      vertex -16.248834 38.557643 22.000000
    endloop
  endfacet
  facet normal 0.737277 0.675590 0.000000
    outer loop
      vertex -17.526038 39.951467 0.000000
      vertex -16.248834 38.557643 22.000000
      vertex -16.248834 38.557643 0.000000
    endloop
  endfacet
  facet normal 0.675590 -0.737277 0.000000
    outer loop
      vertex -16.248834 38.557643 0.000000
      vertex -16.248834 38.557643 22.000000
      vertex -19.787765 35.314810 22.000000
    endloop
  endfacet
  facet normal 0.675590 -0.737277 0.000000
    outer loop
      vertex -16.248834 38.557643 0.000000
      vertex -19.787765 35.314810 22.000000
      vertex -19.787765 35.314810 0.000000
    endloop
  endfacet
  facet normal 0.000000 0.000000 -1.000000
    outer loop
      vertex -21.396040 37.169125 22.000000
      vertex -22.310512 38.823737 22.000000
      vertex -18.109439 41.145588 22.000000
    endloop
  endfacet
  facet normal 0.000000 0.000000 -1.000000
    outer loop
      vertex -21.396040 37.169125 22.000000
      vertex -18.109439 41.145588 22.000000
      vertex -17.194968 39.490976 22.000000
    endloop
  endfacet
  facet normal 0.000000 0.000000 1.000000
    outer loop
      vertex -17.194968 39.490976 0.000000
      vertex -18.109439 41.145588 0.000000
      vertex -22.310512 38.823737 0.000000
    endloop
  endfacet
  facet normal 0.000000 0.000000 1.000000
    outer loop
      vertex -17.194968 39.490976 0.000000
      vertex -22.310512 38.823737 0.000000
      vertex -21.396040 37.169125 0.000000
    endloop
  endfacet
  facet normal -0.875223 -0.483719 0.000000
    outer loop
      vertex -21.396040 37.169125 0.000000
      vertex -21.396040 37.169125 22.000000
      vertex -22.310512 38.823737 22.000000
    endloop
  endfacet
  facet normal -0.875223 -0.483719 0.000000
    outer loop
      vertex -21.396040 37.169125 0.000000
      vertex -22.310512 38.823737 22.000000
      vertex -22.310512 38.823737 0.000000
    endloop
  endfacet
  facet normal -0.483719 0.875223 0.000000
    outer loop
      vertex -22.310512 38.823737 0.000000
      vertex -22.310512 38.823737 22.000000
      vertex -18.109439 41.145588 22.000000
    endloop
  endfacet
  facet normal -0.483719 0.875223 0.000000
    outer loop
      vertex -22.310512 38.823737 0.000000
      vertex -18.109439 41.145588 22.000000
      vertex -18.109439 41.145588 0.000000
    endloop
  endfacet
  facet normal 0.875223 0.483719 -0.000000
    outer loop
      vertex -18.109439 41.145588 0.000000
      vertex -18.109439 41.145588 22.000000
      vertex -17.194968 39.490976 22.000000
    endloop
  endfacet
  facet normal 0.875223 0.483719 0.000000
    outer loop
      vertex -18.109439 41.145588 0.000000
      vertex -17.194968 39.490976 22.000000
      vertex -17.194968 39.490976 0.000000
    endloop
  endfacet
  facet normal 0.483719 -0.875223 0.000000
    outer loop
      vertex -17.194968 39.490976 0.000000
      vertex -17.194968 39.490976 22.000000
      vertex -21.396040 37.169125 22.000000
    endloop
  endfacet
  facet normal 0.483719 -0.875223 0.000000
    outer loop
      vertex -17.194968 39.490976 0.000000
      vertex -21.396040 37.169125 22.000000
      vertex -21.396040 37.169125 0.000000
    endloop
  endfacet
  facet normal 0.000000 0.000000 -1.000000
    outer loop
      vertex -22.524281 39.349059 22.000000
      vertex -23.024952 41.172058 22.000000
      vertex -18.396342 42.443266 22.000000
    endloop
  endfacet
  facet normal 0.000000 0.000000 -1.000000
    outer loop
      vertex -22.524281 39.349059 22.000000
      vertex -18.396342 42.443266 22.000000
      vertex -17.895671 40.620266 22.000000
    endloop
  endfacet
  facet normal 0.000000 0.000000 1.000000
    outer loop
      vertex -17.895671 40.620266 0.000000
      vertex -18.396342 42.443266 0.000000
      vertex -23.024952 41.172058 0.000000
    endloop
  endfacet
  facet normal 0.000000 0.000000 1.000000
    outer loop
      vertex -17.895671 40.620266 0.000000
      vertex -23.024952 41.172058 0.000000
      vertex -22.524281 39.349059 0.000000
    endloop
  endfacet
  facet normal -0.964294 -0.264835 0.000000
    outer loop
      vertex -22.524281 39.349059 0.000000
      vertex -22.524281 39.349059 22.000000
      vertex -23.024952 41.172058 22.000000
    endloop
  endfacet
  facet normal -0.964294 -0.264835 0.000000
    outer loop
      vertex -22.524281 39.349059 0.000000
      vertex -23.024952 41.172058 22.000000
      vertex -23.024952 41.172058 0.000000
    endloop
  endfacet
  facet normal -0.264835 0.964294 0.000000
    outer loop
      vertex -23.024952 41.172058 0.000000
      vertex -23.024952 41.172058 22.000000
      vertex -18.396342 42.443266 22.000000
    endloop
  endfacet
  facet normal -0.264835 0.964294 0.000000
    outer loop
      vertex -23.024952 41.172058 0.000000
      vertex -18.396342 42.443266 22.000000
      vertex -18.396342 42.443266 0.000000
    endloop
  endfacet
  facet normal 0.964294 0.264835 -0.000000
    outer loop
      vertex -18.396342 42.443266 0.000000
      vertex -18.396342 42.443266 22.000000
      vertex -17.895671 40.620266 22.000000
    endloop
  endfacet
  facet normal 0.964294 0.264835 0.000000
    outer loop
      vertex -18.396342 42.443266 0.000000
      vertex -17.895671 40.620266 22.000000
      vertex -17.895671 40.620266 0.000000
    endloop
  endfacet
  facet normal 0.264835 -0.964294 0.000000
    outer loop
      vertex -17.895671 40.620266 0.000000
      vertex -17.895671 40.620266 22.000000
      vertex -22.524281 39.349059 22.000000
    endloop
  endfacet
  facet normal 0.264835 -0.964294 0.000000
    outer loop
      vertex -17.895671 40.620266 0.000000
      vertex -22.524281 39.349059 22.000000
      vertex -22.524281 39.349059 0.000000
    endloop
  endfacet
  facet normal 0.000000 0.000000 -1.000000
    outer loop
      vertex -23.109481 41.732874 22.000000
      vertex -23.168392 43.622458 22.000000
      vertex -18.370723 43.772034 22.000000
    endloop
  endfacet
  facet normal 0.000000 0.000000 -1.000000
    outer loop
      vertex -23.109481 41.732874 22.000000
      vertex -18.370723 43.772034 22.000000
      vertex -18.311812 41.882450 22.000000
    endloop
  endfacet
  facet normal 0.000000 0.000000 1.000000
    outer loop
      vertex -18.311812 41.882450 0.000000
      vertex -18.370723 43.772034 0.000000
      vertex -23.168392 43.622458 0.000000
    endloop
  endfacet
  facet normal 0.000000 0.000000 1.000000
    outer loop
      vertex -18.311812 41.882450 0.000000
      vertex -23.168392 43.622458 0.000000
      vertex -23.109481 41.732874 0.000000
    endloop
  endfacet
  facet normal -0.999514 -0.031162 0.000000
    outer loop
      vertex -23.109481 41.732874 0.000000
      vertex -23.109481 41.732874 22.000000
      vertex -23.168392 43.622458 22.000000
    endloop
  endfacet
  facet normal -0.999514 -0.031162 0.000000
    outer loop
      vertex -23.109481 41.732874 0.000000
      vertex -23.168392 43.622458 22.000000
      vertex -23.168392 43.622458 0.000000
    endloop
  endfacet
  facet normal -0.031162 0.999514 0.000000
    outer loop
      vertex -23.168392 43.622458 0.000000
      vertex -23.168392 43.622458 22.000000
      vertex -18.370723 43.772034 22.000000
    endloop
  endfacet
  facet normal -0.031162 0.999514 0.000000
    outer loop
      vertex -23.168392 43.622458 0.000000
      vertex -18.370723 43.772034 22.000000
      vertex -18.370723 43.772034 0.000000
    endloop
  endfacet
  facet normal 0.999514 0.031162 -0.000000
    outer loop
      vertex -18.370723 43.772034 0.000000
      vertex -18.370723 43.772034 22.000000
      vertex -18.311812 41.882450 22.000000
    endloop
  endfacet
  facet normal 0.999514 0.031162 0.000000
    outer loop
      vertex -18.370723 43.772034 0.000000
      vertex -18.311812 41.882450 22.000000
      vertex -18.311812 41.882450 0.000000
    endloop
  endfacet
  facet normal 0.031162 -0.999514 0.000000
    outer loop
      vertex -18.311812 41.882450 0.000000
      vertex -18.311812 41.882450 22.000000
      vertex -23.109481 41.732874 22.000000
    endloop
  endfacet
  facet normal 0.031162 -0.999514 0.000000
    outer loop
      vertex -18.311812 41.882450 0.000000
      vertex -23.109481 41.732874 22.000000
      vertex -23.109481 41.732874 0.000000
    endloop
  endfacet
  facet normal 0.000000 0.000000 -1.000000
    outer loop
      vertex -23.118962 44.187451 22.000000
      vertex -22.732823 46.038098 22.000000
      vertex -18.034015 45.057688 22.000000
    endloop
  endfacet
  facet normal 0.000000 0.000000 -1.000000
    outer loop
      vertex -23.118962 44.187451 22.000000
      vertex -18.034015 45.057688 22.000000
      vertex -18.420154 43.207041 22.000000
    endloop
  endfacet
  facet normal 0.000000 -0.000000 1.000000
    outer loop
      vertex -18.420154 43.207041 0.000000
      vertex -18.034015 45.057688 0.000000
      vertex -22.732823 46.038098 0.000000
    endloop
  endfacet
  facet normal 0.000000 0.000000 1.000000
    outer loop
      vertex -18.420154 43.207041 0.000000
      vertex -22.732823 46.038098 0.000000
      vertex -23.118962 44.187451 0.000000
    endloop
  endfacet
  facet normal -0.978918 0.204252 0.000000
    outer loop
      vertex -23.118962 44.187451 0.000000
      vertex -23.118962 44.187451 22.000000
      vertex -22.732823 46.038098 22.000000
    endloop
  endfacet
  facet normal -0.978918 0.204252 0.000000
    outer loop
      vertex -23.118962 44.187451 0.000000
      vertex -22.732823 46.038098 22.000000
      vertex -22.732823 46.038098 0.000000
    endloop
  endfacet
  facet normal 0.204252 0.978918 -0.000000
    outer loop
      vertex -22.732823 46.038098 0.000000
      vertex -22.732823 46.038098 22.000000
      vertex -18.034015 45.057688 22.000000
    endloop
  endfacet
  facet normal 0.204252 0.978918 0.000000
    outer loop
      vertex -22.732823 46.038098 0.000000
      vertex -18.034015 45.057688 22.000000
      vertex -18.034015 45.057688 0.000000
    endloop
  endfacet
  facet normal 0.978918 -0.204252 0.000000
    outer loop
      vertex -18.034015 45.057688 0.000000
      vertex -18.034015 45.057688 22.000000
      vertex -18.420154 43.207041 22.000000
    endloop
  endfacet
  facet normal 0.978918 -0.204252 0.000000
    outer loop
      vertex -18.034015 45.057688 0.000000
      vertex -18.420154 43.207041 22.000000
      vertex -18.420154 43.207041 0.000000
    endloop
  endfacet
  facet normal -0.204252 -0.978918 0.000000
    outer loop
      vertex -18.420154 43.207041 0.000000
      vertex -18.420154 43.207041 22.000000
      vertex -23.118962 44.187451 22.000000
    endloop
  endfacet
  facet normal -0.204252 -0.978918 0.000000
    outer loop
      vertex -18.420154 43.207041 0.000000
      vertex -23.118962 44.187451 22.000000
      vertex -23.118962 44.187451 0.000000
    endloop
  endfacet
  facet normal 0.000000 0.000000 -1.000000
    outer loop
      vertex -22.552193 46.575716 22.000000
      vertex -21.742568 48.284079 22.000000
      vertex -17.405019 46.228434 22.000000
    endloop
  endfacet
  facet normal 0.000000 0.000000 -1.000000
    outer loop
      vertex -22.552193 46.575716 22.000000
      vertex -17.405019 46.228434 22.000000
      vertex -18.214645 44.520071 22.000000
    endloop
  endfacet
  facet normal 0.000000 -0.000000 1.000000
    outer loop
      vertex -18.214645 44.520071 0.000000
      vertex -17.405019 46.228434 0.000000
      vertex -21.742568 48.284079 0.000000
    endloop
  endfacet
  facet normal 0.000000 0.000000 1.000000
    outer loop
      vertex -18.214645 44.520071 0.000000
      vertex -21.742568 48.284079 0.000000
      vertex -22.552193 46.575716 0.000000
    endloop
  endfacet
  facet normal -0.903656 0.428259 0.000000
    outer loop
      vertex -22.552193 46.575716 0.000000
      vertex -22.552193 46.575716 22.000000
      vertex -21.742568 48.284079 22.000000
    endloop
  endfacet
  facet normal -0.903656 0.428259 0.000000
    outer loop
      vertex -22.552193 46.575716 0.000000
      vertex -21.742568 48.284079 22.000000
      vertex -21.742568 48.284079 0.000000
    endloop
  endfacet
  facet normal 0.428259 0.903656 -0.000000
    outer loop
      vertex -21.742568 48.284079 0.000000
      vertex -21.742568 48.284079 22.000000
      vertex -17.405019 46.228434 22.000000
    endloop
  endfacet
  facet normal 0.428259 0.903656 0.000000
    outer loop
      vertex -21.742568 48.284079 0.000000
      vertex -17.405019 46.228434 22.000000
      vertex -17.405019 46.228434 0.000000
    endloop
  endfacet
  facet normal 0.903656 -0.428259 0.000000
    outer loop
      vertex -17.405019 46.228434 0.000000
      vertex -17.405019 46.228434 22.000000
      vertex -18.214645 44.520071 22.000000
    endloop
  endfacet
  facet normal 0.903656 -0.428259 0.000000
    outer loop
      vertex -17.405019 46.228434 0.000000
      vertex -18.214645 44.520071 22.000000
      vertex -18.214645 44.520071 0.000000
    endloop
  endfacet
  facet normal -0.428259 -0.903656 0.000000
    outer loop
      vertex -18.214645 44.520071 0.000000
      vertex -18.214645 44.520071 22.000000
      vertex -22.552193 46.575716 22.000000
    endloop
  endfacet
  facet normal -0.428259 -0.903656 0.000000
    outer loop
      vertex -18.214645 44.520071 0.000000
      vertex -22.552193 46.575716 22.000000
      vertex -22.552193 46.575716 0.000000
    endloop
  endfacet
  facet normal 0.000000 0.000000 -1.000000
    outer loop
      vertex -21.440825 48.764299 22.000000
      vertex -20.252926 50.234977 22.000000
      vertex -16.518863 47.218892 22.000000
    endloop
  endfacet
  facet normal 0.000000 0.000000 -1.000000
    outer loop
      vertex -21.440825 48.764299 22.000000
      vertex -16.518863 47.218892 22.000000
      vertex -17.706762 45.748214 22.000000
    endloop
  endfacet
  facet normal 0.000000 -0.000000 1.000000
    outer loop
      vertex -17.706762 45.748214 0.000000
      vertex -16.518863 47.218892 0.000000
      vertex -20.252926 50.234977 0.000000
    endloop
  endfacet
  facet normal 0.000000 0.000000 1.000000
    outer loop
      vertex -17.706762 45.748214 0.000000
      vertex -20.252926 50.234977 0.000000
      vertex -21.440825 48.764299 0.000000
    endloop
  endfacet
  facet normal -0.777930 0.628351 0.000000
    outer loop
      vertex -21.440825 48.764299 0.000000
      vertex -21.440825 48.764299 22.000000
      vertex -20.252926 50.234977 22.000000
    endloop
  endfacet
  facet normal -0.777930 0.628351 0.000000
    outer loop
      vertex -21.440825 48.764299 0.000000
      vertex -20.252926 50.234977 22.000000
      vertex -20.252926 50.234977 0.000000
    endloop
  endfacet
  facet normal 0.628351 0.777930 -0.000000
    outer loop
      vertex -20.252926 50.234977 0.000000
      vertex -20.252926 50.234977 22.000000
      vertex -16.518863 47.218892 22.000000
    endloop
  endfacet
  facet normal 0.628351 0.777930 0.000000
    outer loop
      vertex -20.252926 50.234977 0.000000
      vertex -16.518863 47.218892 22.000000
      vertex -16.518863 47.218892 0.000000
    endloop
  endfacet
  facet normal 0.777930 -0.628351 0.000000
    outer loop
      vertex -16.518863 47.218892 0.000000
      vertex -16.518863 47.218892 22.000000
      vertex -17.706762 45.748214 22.000000
    endloop
  endfacet
  facet normal 0.777930 -0.628351 0.000000
    outer loop
      vertex -16.518863 47.218892 0.000000
      vertex -17.706762 45.748214 22.000000
      vertex -17.706762 45.748214 0.000000
    endloop
  endfacet
  facet normal -0.628351 -0.777930 0.000000
    outer loop
      vertex -17.706762 45.748214 0.000000
      vertex -17.706762 45.748214 22.000000
      vertex -21.440825 48.764299 22.000000
    endloop
  endfacet
  facet normal -0.628351 -0.777930 0.000000
    outer loop
      vertex -17.706762 45.748214 0.000000
      vertex -21.440825 48.764299 22.000000
      vertex -21.440825 48.764299 0.000000
    endloop
  endfacet
  facet normal 0.000000 0.000000 -1.000000
    outer loop
      vertex -19.846922 50.630983 22.000000
      vertex -18.347086 51.781848 22.000000
      vertex -15.425031 47.973752 22.000000
    endloop
  endfacet
  facet normal 0.000000 0.000000 -1.000000
    outer loop
      vertex -19.846922 50.630983 22.000000
      vertex -15.425031 47.973752 22.000000
      vertex -16.924867 46.822887 22.000000
    endloop
  endfacet
  facet normal 0.000000 -0.000000 1.000000
    outer loop
      vertex -16.924867 46.822887 0.000000
      vertex -15.425031 47.973752 0.000000
      vertex -18.347086 51.781848 0.000000
    endloop
  endfacet
  facet normal 0.000000 0.000000 1.000000
    outer loop
      vertex -16.924867 46.822887 0.000000
      vertex -18.347086 51.781848 0.000000
      vertex -19.846922 50.630983 0.000000
    endloop
  endfacet
  facet normal -0.608761 0.793353 0.000000
    outer loop
      vertex -19.846922 50.630983 0.000000
      vertex -19.846922 50.630983 22.000000
      vertex -18.347086 51.781848 22.000000
    endloop
  endfacet
  facet normal -0.608761 0.793353 0.000000
    outer loop
      vertex -19.846922 50.630983 0.000000
      vertex -18.347086 51.781848 22.000000
      vertex -18.347086 51.781848 0.000000
    endloop
  endfacet
  facet normal 0.793353 0.608761 -0.000000
    outer loop
      vertex -18.347086 51.781848 0.000000
      vertex -18.347086 51.781848 22.000000
      vertex -15.425031 47.973752 22.000000
    endloop
  endfacet
  facet normal 0.793353 0.608761 0.000000
    outer loop
      vertex -18.347086 51.781848 0.000000
      vertex -15.425031 47.973752 22.000000
      vertex -15.425031 47.973752 0.000000
    endloop
  endfacet
  facet normal 0.608761 -0.793353 0.000000
    outer loop
      vertex -15.425031 47.973752 0.000000
      vertex -15.425031 47.973752 22.000000
      vertex -16.924867 46.822887 22.000000
    endloop
  endfacet
  facet normal 0.608761 -0.793353 0.000000
    outer loop
      vertex -15.425031 47.973752 0.000000
      vertex -16.924867 46.822887 22.000000
      vertex -16.924867 46.822887 0.000000
    endloop
  endfacet
  facet normal -0.793353 -0.608761 0.000000
    outer loop
      vertex -16.924867 46.822887 0.000000
      vertex -16.924867 46.822887 22.000000
      vertex -19.846922 50.630983 22.000000
    endloop
  endfacet
  facet normal -0.793353 -0.608761 0.000000
    outer loop
      vertex -16.924867 46.822887 0.000000
      vertex -19.846922 50.630983 22.000000
      vertex -19.846922 50.630983 0.000000
    endloop
  endfacet
  facet normal 0.000000 0.000000 -1.000000
    outer loop
      vertex -17.859492 52.071524 22.000000
      vertex -16.131475 52.838307 22.000000
      vertex -14.184608 48.450858 22.000000
    endloop
  endfacet
  facet normal 0.000000 0.000000 -1.000000
    outer loop
      vertex -17.859492 52.071524 22.000000
      vertex -14.184608 48.450858 22.000000
      vertex -15.912624 47.684075 22.000000
    endloop
  endfacet
  facet normal 0.000000 -0.000000 1.000000
    outer loop
      vertex -15.912624 47.684075 0.000000
      vertex -14.184608 48.450858 0.000000
      vertex -16.131475 52.838307 0.000000
    endloop
  endfacet
  facet normal 0.000000 0.000000 1.000000
    outer loop
      vertex -15.912624 47.684075 0.000000
      vertex -16.131475 52.838307 0.000000
      vertex -17.859492 52.071524 0.000000
    endloop
  endfacet
  facet normal -0.405597 0.914052 0.000000
    outer loop
      vertex -17.859492 52.071524 0.000000
      vertex -17.859492 52.071524 22.000000
      vertex -16.131475 52.838307 22.000000
    endloop
  endfacet
  facet normal -0.405597 0.914052 0.000000
    outer loop
      vertex -17.859492 52.071524 0.000000
      vertex -16.131475 52.838307 22.000000
      vertex -16.131475 52.838307 0.000000
    endloop
  endfacet
  facet normal 0.914052 0.405597 -0.000000
    outer loop
      vertex -16.131475 52.838307 0.000000
      vertex -16.131475 52.838307 22.000000
      vertex -14.184608 48.450858 22.000000
    endloop
  endfacet
  facet normal 0.914052 0.405597 0.000000
    outer loop
      vertex -16.131475 52.838307 0.000000
      vertex -14.184608 48.450858 22.000000
      vertex -14.184608 48.450858 0.000000
    endloop
  endfacet
  facet normal 0.405597 -0.914052 0.000000
    outer loop
      vertex -14.184608 48.450858 0.000000
      vertex -14.184608 48.450858 22.000000
      vertex -15.912624 47.684075 22.000000
    endloop
  endfacet
  facet normal 0.405597 -0.914052 0.000000
    outer loop
      vertex -14.184608 48.450858 0.000000
      vertex -15.912624 47.684075 22.000000
      vertex -15.912624 47.684075 0.000000
    endloop
  endfacet
  facet normal -0.914052 -0.405597 0.000000
    outer loop
      vertex -15.912624 47.684075 0.000000
      vertex -15.912624 47.684075 22.000000
      vertex -17.859492 52.071524 22.000000
    endloop
  endfacet
  facet normal -0.914052 -0.405597 0.000000
    outer loop
      vertex -15.912624 47.684075 0.000000
      vertex -17.859492 52.071524 22.000000
      vertex -17.859492 52.071524 0.000000
    endloop
  endfacet
  facet normal 0.000000 0.000000 -1.000000
    outer loop
      vertex -15.589522 53.005477 22.000000
      vertex -13.729823 53.345358 22.000000
      vertex -12.866863 48.623568 22.000000
    endloop
  endfacet
  facet normal 0.000000 0.000000 -1.000000
    outer loop
      vertex -15.589522 53.005477 22.000000
      vertex -12.866863 48.623568 22.000000
      vertex -14.726561 48.283688 22.000000
    endloop
  endfacet
  facet normal 0.000000 0.000000 1.000000
    outer loop
      vertex -14.726561 48.283688 0.000000
      vertex -12.866863 48.623568 0.000000
      vertex -13.729823 53.345358 0.000000
    endloop
  endfacet
  facet normal 0.000000 -0.000000 1.000000
    outer loop
      vertex -14.726561 48.283688 0.000000
      vertex -13.729823 53.345358 0.000000
      vertex -15.589522 53.005477 0.000000
    endloop
  endfacet
  facet normal -0.179783 0.983706 0.000000
    outer loop
      vertex -15.589522 53.005477 0.000000
      vertex -15.589522 53.005477 22.000000
      vertex -13.729823 53.345358 22.000000
    endloop
  endfacet
  facet normal -0.179783 0.983706 0.000000
    outer loop
      vertex -15.589522 53.005477 0.000000
      vertex -13.729823 53.345358 22.000000
      vertex -13.729823 53.345358 0.000000
    endloop
  endfacet
  facet normal 0.983706 0.179783 -0.000000
    outer loop
      vertex -13.729823 53.345358 0.000000
      vertex -13.729823 53.345358 22.000000
      vertex -12.866863 48.623568 22.000000
    endloop
  endfacet
  facet normal 0.983706 0.179783 0.000000
    outer loop
      vertex -13.729823 53.345358 0.000000
      vertex -12.866863 48.623568 22.000000
      vertex -12.866863 48.623568 0.000000
    endloop
  endfacet
  facet normal 0.179783 -0.983706 0.000000
    outer loop
      vertex -12.866863 48.623568 0.000000
      vertex -12.866863 48.623568 22.000000
      vertex -14.726561 48.283688 22.000000
    endloop
  endfacet
  facet normal 0.179783 -0.983706 0.000000
    outer loop
      vertex -12.866863 48.623568 0.000000
      vertex -14.726561 48.283688 22.000000
      vertex -14.726561 48.283688 0.000000
    endloop
  endfacet
  facet normal -0.983706 -0.179783 0.000000
    outer loop
      vertex -14.726561 48.283688 0.000000
      vertex -14.726561 48.283688 22.000000
      vertex -15.589522 53.005477 22.000000
    endloop
  endfacet
  facet normal -0.983706 -0.179783 0.000000
    outer loop
      vertex -14.726561 48.283688 0.000000
      vertex -15.589522 53.005477 22.000000
      vertex -15.589522 53.005477 0.000000
    endloop
  endfacet
  facet normal 0.000000 0.000000 -1.000000
    outer loop
      vertex -13.163774 53.380688 22.000000
      vertex -11.276246 53.274686 22.000000
      vertex -11.545384 48.482238 22.000000
    endloop
  endfacet
  facet normal 0.000000 -0.000000 -1.000000
    outer loop
      vertex -13.163774 53.380688 22.000000
      vertex -11.545384 48.482238 22.000000
      vertex -13.432912 48.588239 22.000000
    endloop
  endfacet
  facet normal -0.000000 0.000000 1.000000
    outer loop
      vertex -13.432912 48.588239 0.000000
      vertex -11.545384 48.482238 0.000000
      vertex -11.276246 53.274686 0.000000
    endloop
  endfacet
  facet normal 0.000000 0.000000 1.000000
    outer loop
      vertex -13.432912 48.588239 0.000000
      vertex -11.276246 53.274686 0.000000
      vertex -13.163774 53.380688 0.000000
    endloop
  endfacet
  facet normal 0.056070 0.998427 -0.000000
    outer loop
      vertex -13.163774 53.380688 0.000000
      vertex -13.163774 53.380688 22.000000
      vertex -11.276246 53.274686 22.000000
    endloop
  endfacet
  facet normal 0.056070 0.998427 0.000000
    outer loop
      vertex -13.163774 53.380688 0.000000
      vertex -11.276246 53.274686 22.000000
      vertex -11.276246 53.274686 0.000000
    endloop
  endfacet
  facet normal 0.998427 -0.056070 0.000000
    outer loop
      vertex -11.276246 53.274686 0.000000
      vertex -11.276246 53.274686 22.000000
      vertex -11.545384 48.482238 22.000000
    endloop
  endfacet
  facet normal 0.998427 -0.056070 0.000000
    outer loop
      vertex -11.276246 53.274686 0.000000
      vertex -11.545384 48.482238 22.000000
      vertex -11.545384 48.482238 0.000000
    endloop
  endfacet
  facet normal -0.056070 -0.998427 0.000000
    outer loop
      vertex -11.545384 48.482238 0.000000
      vertex -11.545384 48.482238 22.000000
      vertex -13.432912 48.588239 22.000000
    endloop
  endfacet
  facet normal -0.056070 -0.998427 0.000000
    outer loop
      vertex -11.545384 48.482238 0.000000
      vertex -13.432912 48.588239 22.000000
      vertex -13.432912 48.588239 0.000000
    endloop
  endfacet
  facet normal -0.998427 0.056070 0.000000
    outer loop
      vertex -13.432912 48.588239 0.000000
      vertex -13.432912 48.588239 22.000000
      vertex -13.163774 53.380688 22.000000
    endloop
  endfacet
  facet normal -0.998427 0.056070 0.000000
    outer loop
      vertex -13.432912 48.588239 0.000000
      vertex -13.163774 53.380688 22.000000
      vertex -13.163774 53.380688 0.000000
    endloop
  endfacet
endsolid iron_hook
