<svg
width="100%"
height="100%"
viewBox="-58.168285313984235 -101.82094146822948 147.0 160.0"
xmlns="http://www.w3.org/2000/svg"
xmlns:trimesh="https://github.com/mikedh/trimesh"
trimesh:class="Path2D"
trimesh:metadata="base64,eyJ0b18zRCI6W1sxLjAsMC4wLDAuMCw1OC4xNjgyODUzMTM5ODQyMzVdLFswLjAsMS4wLDAuMCwxMDEuODIwOTQxNDY4MjI5NDhdLFswLjAsMC4wLDEuMCwyMS4wXSxbMC4wLDAuMCwwLjAsMS4wXV19"
>
<path d="M-58.1682853139842,54.1790585317705L-58.1682853139842,47.2699676226796L-58.1682853139842,-97.8209414682295L-58.1680663060302,-97.8298628638781L-58.1634671389962,-98.0172121724989L-58.1628106426861,-98.0261120779638L-58.1490242201740,-98.2130100927259L-58.1479318171476,-98.2218670611721L-58.1249913535918,-98.4078633985426L-58.1234656755125,-98.4166560915073L-58.0914264358486,-98.6013026437666L-58.0894711583081,-98.6100098961823L-58.0484103299583,-98.7928621969129L-58.0460301627395,-98.8014630171075L-57.9960466511453,-98.9820802411940L-57.9932473291633,-98.9905539084254L-57.9344615675414,-99.1685009202864L-57.9312498349263,-99.1768270280918L-57.8638034500087,-99.3516752920057L-57.8601870424951,-99.3598337698756L-57.7842424847091,-99.5311618051435L-57.7802301154123,-99.5391330160568L-57.6959703601802,-99.7065284452345L-57.6915716972446,-99.7142931748210L-57.5991997755969,-99.8773524961378L-57.5944254110388,-99.8848920393764L-57.4941637553180,-100.0432224473860L-57.4890251955431,-100.0505186411157L-57.3811154402698,-100.2037387094404L-57.3756250613698,-100.2107739757098L-57.2603271044696,-100.3585145673658L-57.2544981359664,-100.3652719621998L-57.1320897973979,-100.5071772537138L-57.1259362788946,-100.5136404942072L-56.9967123903240,-100.6493685445692L-56.9902491498305,-100.6555220630726L-56.8545210994685,-100.7847459516432L-56.8477637046346,-100.7905749201464L-56.7058584131206,-100.9129832587149L-56.6988231468513,-100.9184736376149L-56.5510825551952,-101.0337715945150L-56.5437863614654,-101.0389101542900L-56.3905662931407,-101.1468199095632L-56.3830267499022,-101.1515942741214L-56.2246963418926,-101.2518559298422L-56.2169316123060,-101.2562545927778L-56.0538722909892,-101.3486265144255L-56.0459010800760,-101.3526388837222L-55.8785056508983,-101.4368986389543L-55.8703471730284,-101.4405150464680L-55.6990191377605,-101.5164596042540L-55.6906930299551,-101.5196713368691L-55.5158447660411,-101.5871177217867L-55.5073710988096,-101.5899170437687L-55.3294240869487,-101.6487028053905L-55.3208232667541,-101.6510829726093L-55.1402060426677,-101.7010664842035L-55.1314987902520,-101.7030217617440L-54.9486464895213,-101.7440825900938L-54.9398537965566,-101.7456082681730L-54.7552072442973,-101.7776475078370L-54.7463502758511,-101.7787399108635L-54.5603539384807,-101.8016803744193L-54.5514540330158,-101.8023368707294L-54.3645560182536,-101.8161232932414L-54.3556346226050,-101.8163423011954L-54.1682853139842,-101.8209414682295L-47.8501034958024,-101.8209414682295L84.8317146860158,-101.8209414682295L84.8406362225481,-101.8207224602755L85.0279884897267,-101.8161232932414L85.0368885252381,-101.8154667969313L85.2237892709767,-101.8016803744193L85.2326463044462,-101.8005879713928L85.4186440073048,-101.7776475078370L85.4274365377114,-101.7761218297578L85.6120796762501,-101.7440825900938L85.6207868961543,-101.7421273125533L85.8036385141408,-101.7010664842035L85.8122389225215,-101.6986863169847L85.9928474985158,-101.6487028053905L86.0013216750960,-101.6459034834085L86.1792793832814,-101.5871177217867L86.1876051334590,-101.5839059891716L86.3624458871876,-101.5164596042540L86.3706044842668,-101.5128431967403L86.5419350229298,-101.4368986389543L86.5499063530523,-101.4328862696576L86.7173042856251,-101.3486265144255L86.7250689285140,-101.3442278514899L86.8881264291798,-101.2518559298422L86.8956656581394,-101.2470815652840L87.0539894662892,-101.1468199095632L87.0612859417864,-101.1416813497883L87.2145119272267,-101.0337715945150L87.2215469225658,-101.0282812156150L87.3692818246876,-100.9129832587149L87.3760393874984,-100.9071542902116L87.5179482065236,-100.7847459516432L87.5244116908542,-100.7785924331398L87.6601448617970,-100.6493685445692L87.6662983152771,-100.6429053040758L87.7955208383595,-100.5071772537138L87.8013496957814,-100.5004198588798L87.9237557016408,-100.3585145673658L87.9292460913780,-100.3514793010965L88.0445442758595,-100.2037387094404L88.0496830198670,-100.1964425157107L88.1575966440236,-100.0432224473860L88.1623705642562,-100.0356829041474L88.2626228891408,-99.8773524961378L88.2670215818787,-99.8695877665513L88.3593941293751,-99.7065284452345L88.3634064973173,-99.6985572343213L88.4476662241017,-99.5311618051435L88.4512825571095,-99.5230033272736L88.5272255502736,-99.3516752920057L88.5304375253712,-99.3433491842003L88.5978890024220,-99.1685009202864L88.6006882966337,-99.1600272530549L88.6594734750783,-98.9820802411940L88.6618538461720,-98.9734794209994L88.7118416391408,-98.7928621969129L88.7137968448847,-98.7841549444972L88.7548561655080,-98.6013026437666L88.7563820444142,-98.5925099508019L88.7884255014455,-98.4078633985426L88.7895178920261,-98.3990064300964L88.8124580942189,-98.2130100927259L88.8131142221486,-98.2041101872611L88.8268929086720,-98.0172121724989L88.8271120803695,-98.0082907768503L88.8317146860158,-97.8209414682295L88.8317146860158,-90.9118505591386L88.8317146860158,54.1790585317705L88.8314955143183,54.1879800683028L88.8268929086720,54.3753323354815L88.8262367807423,54.3842323709928L88.8124580942189,54.5711331167315L88.8113657036383,54.5799901502009L88.7884255014455,54.7659878530596L88.7868996225392,54.7747803834662L88.7548561655080,54.9594235220049L88.7529009597640,54.9681307419090L88.7118416391408,55.1509823598955L88.7094612680470,55.1595827682762L88.6594734750783,55.3401913442705L88.6566741808666,55.3486655208508L88.5978890024220,55.5266232290361L88.5946770273244,55.5349489792137L88.5272255502736,55.7097897329424L88.5236092172658,55.7179483300216L88.4476662241017,55.8892788686846L88.4436538561596,55.8972501988071L88.3593941293751,56.0646481313799L88.3549954366372,56.0724127742687L88.2626228891408,56.2354702749346L88.2578489689082,56.2430095038941L88.1575966440236,56.4013333120440L88.1524579000161,56.4086297875411L88.0445442758595,56.5618557729815L88.0390538861223,56.5688907683206L87.9237557016408,56.7166256704424L87.9179268442189,56.7233832332531L87.7955208383595,56.8652920522783L87.7893673848794,56.8717555366090L87.6601448617970,57.0074887075518L87.6536813774664,57.0136421610319L87.5179482065236,57.1428646841143L87.5111906437129,57.1486935415361L87.3692818246876,57.2710995473955L87.3622468293485,57.2765899371327L87.2145119272267,57.3918881216143L87.2072154517296,57.3970268656217L87.0539894662892,57.5049404897783L87.0464502373297,57.5097144100109L86.8881264291798,57.6099667348955L86.8803617862910,57.6143654276335L86.7173042856251,57.7067379751299L86.7093329555026,57.7107503430720L86.5419350229298,57.7950100698565L86.5337764258506,57.7986264028643L86.3624458871876,57.8745693960283L86.3541201370101,57.8777813711260L86.1792793832814,57.9452328481768L86.1708052067011,57.9480321423884L85.9928474985158,58.0068173208330L85.9842470901351,58.0091976919268L85.8036385141408,58.0591854848955L85.7949312942366,58.0611406906395L85.6120796762501,58.1022000112627L85.6032871458436,58.1037258901690L85.4186440073048,58.1357693472002L85.4097869738354,58.1368617377808L85.2237892709767,58.1598019399736L85.2148892354653,58.1604580679033L85.0279884897267,58.1742367544268L85.0190669531944,58.1744559261242L84.8317146860158,58.1790585317705L78.5135328678340,58.1790585317705L-54.1682853139842,58.1790585317705L-54.1772067096328,58.1788393600731L-54.3645560182536,58.1742367544268L-54.3734559237185,58.1735806264971L-54.5603539384807,58.1598019399736L-54.5692109069269,58.1587095493930L-54.7552072442973,58.1357693472002L-54.7639999372621,58.1342434682940L-54.9486464895213,58.1022000112627L-54.9573537419371,58.1002448055187L-55.1402060426677,58.0591854848955L-55.1488068628623,58.0568051138018L-55.3294240869487,58.0068173208330L-55.3378977541802,58.0040180266214L-55.5158447660411,57.9452328481768L-55.5241708738465,57.9420208730791L-55.6990191377605,57.8745693960283L-55.7071776156304,57.8709530630205L-55.8785056508983,57.7950100698565L-55.8864768618115,57.7909977019143L-56.0538722909892,57.7067379751299L-56.0616370205758,57.7023392823920L-56.2246963418926,57.6099667348955L-56.2322358851311,57.6051928146629L-56.3905662931407,57.5049404897783L-56.3978624868705,57.4998017457709L-56.5510825551952,57.3918881216143L-56.5581178214645,57.3863977318771L-56.7058584131206,57.2710995473955L-56.7126158079546,57.2652706899736L-56.8545210994685,57.1428646841143L-56.8609843399620,57.1367112306341L-56.9967123903240,57.0074887075518L-57.0028659088273,57.0010252232211L-57.1320897973979,56.8652920522783L-57.1379187659012,56.8585344894676L-57.2603271044696,56.7166256704424L-57.2658174833696,56.7095906751033L-57.3811154402698,56.5618557729815L-57.3862540000447,56.5545592974843L-57.4941637553180,56.4013333120440L-57.4989381198761,56.3937940830844L-57.5991997755969,56.2354702749346L-57.6035984385325,56.2277056320457L-57.6959703601802,56.0646481313799L-57.6999827294770,56.0566768012574L-57.7842424847091,55.8892788686846L-57.7878588922227,55.8811202716054L-57.8638034500087,55.7097897329424L-57.8670151826238,55.7014639827648L-57.9344615675414,55.5266232290361L-57.9372608895234,55.5181490524559L-57.9960466511453,55.3401913442705L-57.9984268183641,55.3315909358898L-58.0484103299583,55.1509823598955L-58.0503656074987,55.1422751399914L-58.0914264358486,54.9594235220049L-58.0929521139278,54.9506309915983L-58.1249913535918,54.7659878530596L-58.1260837566182,54.7571308195901L-58.1490242201740,54.5711331167315L-58.1496807164841,54.5622330812201L-58.1634671389962,54.3753323354815L-58.1636861469502,54.3664107989491L-58.1682853139842,54.1790585317705" />
<path d="M-54.1721271909679,42.3465390005205L-53.9998098450308,42.7246695954098L-53.9841446317638,42.7590451040361L-53.7972963092133,43.1343642670407L-53.7803100980724,43.1684841909502L-53.5790440079972,43.5407821137204L-53.5607470907176,43.5746273794268L-53.3451838729188,43.9436662791664L-53.3255872167552,43.9772152700518L-53.0958571272497,44.3427853384111L-53.0749725736583,44.3760189809893L-52.8312132991756,44.7378824351722L-52.8090533651317,44.7707791128252L-52.5514126457179,45.1287261444821L-52.5279907621349,45.1612667837236L-52.2566233314479,45.5150875845049L-52.2319535650218,45.5472531118486L-51.9470228987341,45.8967238861813L-51.9211201108898,45.9284939565752L-51.6227979895875,46.2734188833330L-51.5956777967418,46.3047756948565L-51.2841434317236,46.6449309784665L-51.2558221258128,46.6758541860674L-50.9312634703919,47.0110440054033L-50.9017581380809,47.0415158071611L-50.5643710133835,47.3715303538734L-50.5336994565929,47.4015316763018L-50.1836871144578,47.7261891164873L-50.1518678106273,47.7557034292315L-49.7894404965048,48.0747939545407L-49.7564925588573,48.1038021841143L-49.3818683860108,48.4171299734209L-49.3478116430248,48.4456143179033L-48.9612179038331,48.7529975373044L-48.9260730184520,48.7809414663408L-48.5277405020997,49.0821982819333L-48.4915284551586,49.1095852651690L-48.0816984412476,49.4045338430498L-48.0444411672557,49.4313473501299L-47.6233601805970,49.7197918691729L-47.5850800909007,49.7460140981768L-47.1530016499166,50.0278146861488L-47.1137217916454,50.0534329214190L-46.6709064083700,50.3283797699704L-46.6306504644359,50.3533749380205L-46.1773647703136,50.6213421621416L-46.1361569799388,50.6457028188799L-45.6726737258240,50.9065085846676L-45.6305388845409,50.9302181997393L-45.1571369406983,51.1836946605140L-45.1141004003490,51.2067379751299L-44.6310665048564,51.4527592458819L-44.5871543325389,51.4751248159502L-44.0947778460786,51.7135230499997L-44.0500163473094,51.7351956167315L-43.5485944983765,51.9658309418454L-43.5030106939281,51.9867977895830L-42.9928450820252,52.2095303335283L-42.9464663900340,52.2297787466143L-42.4278656082754,52.4444826243812L-42.3807200826610,52.4640011587236L-41.8539944725637,52.6705364980791L-41.8061103261913,52.6893124380205L-41.2715798454885,52.8875533539548L-41.2229861654247,52.9055752554033L-40.6809690234467,53.0954238373532L-40.6316947378124,53.1126827993486L-40.0825213827098,53.2939991750811L-40.0325965322460,53.3104824819658L-39.4765956637665,53.4831687409176L-39.4260501302684,53.4988674917315L-38.8635574417715,53.6628257233395L-38.8124217428172,53.6777310171221L-38.2437746760651,53.8328493236000L-38.1920794881786,53.8469509878252L-37.6176224785452,53.9931454458330L-37.5653991140331,54.0064358511065L-36.9854765968924,54.1436085500811L-36.9327563680614,54.1560787954424L-36.3477180239960,54.2841597992673L-36.2945327199901,54.2958035268877L-35.7047317263886,54.4147089122230L-35.6511134542430,54.4255184927080L-35.0569047368968,54.5351643362139L-35.0028857625926,54.5451321401690L-34.4046277440990,54.6454764801755L-34.3502406515086,54.6545986929033L-33.7482917544648,54.7455715932940L-33.6935691274608,54.7538418569658L-33.0882947680756,54.8353873688473L-33.0332698263133,54.8428005972002L-32.4250319239899,54.9148627716794L-32.3697375692333,54.9214138784502L-31.7589032885834,54.9839647410804L-31.7033728994335,54.9896511831377L-31.0903111534719,55.0426347850257L-31.0345782674754,55.0474514761065L-30.4196579692170,55.0908398428057L-30.3637561239208,55.0947842397783L-29.7473479347830,55.1285633840654L-29.6913108266795,55.1316342153643L-29.0737854080801,55.1557901500160L-29.0176467336620,55.1579861440752L-28.3993747470185,55.1724769074216L-28.3431682027782,55.1737942495440L-27.7245255547171,55.1786198415850L-27.6682853139842,55.1790585317705L-27.0496426659231,55.1742329397295L-26.9934024251903,55.1737942495440L-26.3751304385468,55.1593034861976L-26.3189238943065,55.1579861440752L-25.7013984757071,55.1338302094235L-25.6452598012889,55.1316342153643L-25.0288498637482,55.0978550710772L-24.9728125966991,55.0947842397783L-24.3578922984406,55.0513958730791L-24.3019904531444,55.0474514761065L-23.6889304555858,54.9944678742184L-23.6331977285350,54.9896511831377L-23.0223651962881,54.9271003205075L-22.9668349660838,54.9214138784502L-22.3585970637604,54.8493517039711L-22.3033027090038,54.8428005972002L-21.6980266012157,54.7612550853187L-21.6430015005077,54.7538418569658L-21.0410543518667,54.6628689565752L-20.9863318838085,54.6545986929033L-20.3880703685090,54.5542543528968L-20.3336829580272,54.5451321401690L-19.7394742406810,54.4354862966631L-19.6854552663768,54.4255184927080L-19.0956560211782,54.3066131073727L-19.0420379079784,54.2958035268877L-18.4570013123159,54.1677225230628L-18.4038161672557,54.1560787954424L-17.8238919017121,54.0189060964678L-17.7711715139354,54.0064358511065L-17.1967127558991,53.8602413930986L-17.1444892324413,53.8469509878252L-16.5758456624950,53.6918326813473L-16.5241507924999,53.6777310171221L-15.9616546071971,53.5137727855140L-15.9105185903514,53.4988674917315L-15.3545194702749,53.3261812327796L-15.3039740957225,53.3104824819658L-14.7548007406200,53.1291661062334L-14.7048758901561,53.1126827993486L-14.1628604965811,52.9228342173988L-14.1135863698924,52.9055752554033L-13.5790541407868,52.7073343394691L-13.5304603017772,52.6893124380205L-13.0037364400829,52.4827770986651L-12.9558524526561,52.4640011587236L-12.4372481740917,52.2492972809567L-12.3901023305858,52.2297787466143L-11.8799393412873,52.0070462026690L-11.8335608877147,51.9867977895830L-11.3321399129833,51.7561624644691L-11.2865561880077,51.7351956167315L-10.7941779531444,51.4967973826820L-10.7494162954295,51.4751248159502L-10.2663815257355,51.2291035451983L-10.2224692739452,51.2067379751299L-9.7490682043041,50.9532615143551L-9.7060317434276,50.9302181997393L-9.2425476151113,50.6694124339515L-9.2004126943553,50.6457028188799L-8.7471287486359,50.3777355947588L-8.7059211172069,50.3533749380205L-8.2631031113272,50.0784280894691L-8.2228469289745,50.0534329214190L-7.7907711105947,49.7716323334469L-7.7514914907420,49.7460140981768L-7.3304096298819,49.4575695791338L-7.2921294607128,49.4313473501299L-6.8823003210033,49.1363987722490L-6.8450431264842,49.1095852651690L-6.4467114843334,48.8083284495765L-6.4104995168651,48.7809414663408L-6.0239031550690,48.4735582469398L-5.9887580312694,48.4456143179033L-5.6141347326244,48.1322865285967L-5.5800780691112,48.1038021841143L-5.2176516291901,47.7847116588050L-5.1847037710155,47.7557034292315L-4.8346909917796,47.4310459890459L-4.8028716482128,47.4015316763018L-4.4654823380117,47.0715171295895L-4.4348105825389,47.0415158071611L-4.1102545497224,46.7063259878252L-4.0807494558299,46.6758541860674L-3.7692155279125,46.3356989024574L-3.7408942617381,46.3047756948565L-3.4425712662344,45.9598507680986L-3.4154509939159,45.9284939565752L-3.1305207647289,45.5790231822425L-3.1046180166210,45.5472531118486L-2.8332484004304,45.1934323110674L-2.8085784353221,45.1612667837236L-2.5509372788076,44.8033197520668L-2.5275153554881,44.7707791128252L-2.2837565181061,44.4089156586423L-2.2615966237987,44.3760189809893L-2.0318669713939,44.0104489126299L-2.0109824575389,43.9772152700518L-1.7954183655386,43.6081763703122L-1.7758216299022,43.5746273794268L-1.5745559769278,43.2023294566566L-1.5562590993846,43.1684841909502L-1.3694107768342,42.7931650279457L-1.3524245656932,42.7590451040361L-1.1801089681590,42.3809145091468L-1.1644439138378,42.3465390005205L-1.0067589518830,41.9658207693194L-0.9924239553417,41.9312100210283L-0.8494710363353,41.5481559235348L-0.8364753164256,41.5133328237627L-0.7083383637075,41.1281526683265L-0.6966895498241,41.0931362905596L-0.5834454931224,40.7060818472002L-0.5731505788768,40.6708950796221L-0.4748658575023,40.2821761566891L-0.4659308828319,40.2468380727861L-0.3826684392894,39.8567064402992L-0.3750991262401,39.8212399282549L-0.3069044190054,39.4299333690101L-0.3007049001659,39.3943600454424L-0.2476233877147,39.0021023550127L-0.2427977956737,38.9664425649736L-0.2048609492585,38.5734715261553L-0.2014121450389,38.5377468862627L-0.1786374486888,38.1443002818519L-0.1765670217479,38.1085324087236L-0.1689754562979,37.7148480215166L-0.1682853139842,37.6790585317705L-0.1758768794343,37.2853741445635L-0.1765670217479,37.2495846548174L-0.1993417180980,36.8561380504066L-0.2014121450389,36.8203701772783L-0.2393489914541,36.4273991384600L-0.2427977956737,36.3916744985674L-0.2958793081249,35.9994168081377L-0.3007049001659,35.9637570180986L-0.3688996074006,35.5724504588539L-0.3750991262401,35.5368771352861L-0.4583615697826,35.1467455027992L-0.4659308828319,35.1112789907549L-0.5642156042064,34.7225600678219L-0.5731505788768,34.6872219839190L-0.6863946355785,34.3001675405596L-0.6966895498241,34.2649807729815L-0.8248265025422,33.8798006175453L-0.8364753164256,33.8447842397783L-0.9794282354320,33.4617301422848L-0.9924239553417,33.4269070425127L-1.1501089172964,33.0461888113115L-1.1644439138378,33.0115780630205L-1.3367595113719,32.6334474681312L-1.3524245656932,32.5990719595049L-1.5392728882437,32.2237527965003L-1.5562590993846,32.1896328725908L-1.7575247523591,31.8173349498207L-1.7758216299022,31.7834896841143L-1.9913857219025,31.4144507843747L-2.0109824575389,31.3809017934893L-2.2407121099437,31.0153317251299L-2.2615966237987,30.9820980825518L-2.5053554611807,30.6202346283688L-2.5275153554881,30.5873379507158L-2.7851565120026,30.2293909190589L-2.8085784353221,30.1968502798174L-3.0799480515127,29.8430294790361L-3.1046180166210,29.8108639516924L-3.3895482458080,29.4613931773597L-3.4154509939159,29.4296231069658L-3.7137739894196,29.0846981802080L-3.7408942617381,29.0533413686846L-4.0524281896556,28.7131860850746L-4.0807494558299,28.6822628774736L-4.4053054886465,28.3470730581377L-4.4348105825389,28.3166012563799L-4.7721998927399,27.9865867096676L-4.8028716482128,27.9565853872393L-5.1528844274486,27.6319279470537L-5.1847037710155,27.6024136343096L-5.5471302109365,27.2833231090003L-5.5800780691112,27.2543148794268L-5.9547013677562,26.9409870901201L-5.9887580312694,26.9125027456377L-6.3753543930655,26.6051195262367L-6.4104995168651,26.5771755972002L-6.8088311590160,26.2759187816078L-6.8450431264842,26.2485317983721L-7.2548722661937,25.9535902141029L-7.2921294607128,25.9267773428057L-7.7132113215729,25.6383188365394L-7.7514914907420,25.6120953359697L-8.1835673091218,25.3303087352210L-8.2228469289745,25.3046917715166L-8.6656649348542,25.0297309357419L-8.7059211172069,25.0047344961260L-9.1592050629263,24.7367742656165L-9.2004126943553,24.7124142446611L-9.6638968226716,24.4516154724850L-9.7060317434276,24.4279064931963L-10.1794328130687,24.1744230388099L-10.2224692739452,24.1513790884111L-10.7055040436392,23.9053578176592L-10.7494162954295,23.8829922475908L-11.2417945302928,23.6446010071530L-11.2865561880077,23.6229290762041L-11.7879771627391,23.3922937510902L-11.8335608877147,23.3713269033526L-12.3437238770132,23.1485873657956L-12.3901023305858,23.1283383169268L-12.9087066091503,22.9136414327715L-12.9558524526561,22.8941235342119L-13.4825763143504,22.6875812012448L-13.5304603017772,22.6688046255205L-14.0649925308828,22.4705567159746L-14.1135863698924,22.4525341787432L-14.6556017634675,22.2626925904050L-14.7048758901561,22.2454342641924L-15.2540492452586,22.0641178884600L-15.3039740957225,22.0476345815752L-15.8599732157990,21.8749483226234L-15.9105185903514,21.8592495718096L-16.4730147756542,21.6952913402015L-16.5241507924999,21.6803860464190L-17.0927943624461,21.5252677399411L-17.1444892324413,21.5111660757158L-17.7189479904776,21.3649716177080L-17.7711715139354,21.3516812124346L-18.3510957794790,21.2145085134600L-18.4038161672557,21.2020382680986L-18.9888527629182,21.0739572642738L-19.0420379079784,21.0623135366533L-19.6318371531769,20.9434151449297L-19.6854552663768,20.9326062002276L-20.2796639837230,20.8229463694984L-20.3336829580272,20.8129772939776L-20.9319444733267,20.7126329539710L-20.9863318838085,20.7035107412432L-21.5882790324494,20.6125378408526L-21.6430015005077,20.6042675771807L-22.2482776082958,20.5227290589108L-22.3033027090038,20.5153164663408L-22.9115406113272,20.4432542918617L-22.9668349660838,20.4367031850908L-23.5776674983308,20.3741523224606L-23.6331977285350,20.3684658804033L-24.2462577260936,20.3154822785153L-24.3019904531444,20.3106655874346L-24.9169107514029,20.2672702271237L-24.9728125966991,20.2633251943682L-25.5892225342398,20.2295460500811L-25.6452598012889,20.2264752187822L-26.2627852198884,20.2023332713539L-26.3189238943065,20.2001385488604L-26.9371958809500,20.1856477855140L-26.9934024251903,20.1843304433916L-27.6120450732514,20.1794978577390L-27.6682853139842,20.1790585317705L-28.2869279620454,20.1838911174232L-28.3431682027782,20.1843304433916L-28.9614401894217,20.1988212067380L-29.0176467336620,20.2001385488604L-29.6351721522614,20.2242804962888L-29.6913108266795,20.2264752187822L-30.3077190158173,20.2602543630694L-30.3637561239208,20.2633251943682L-30.9786764221792,20.3067205546790L-31.0345782674754,20.3106655874346L-31.6476400134370,20.3636491893226L-31.7033728994335,20.3684658804033L-32.3142071800833,20.4310167430335L-32.3697375692333,20.4367031850908L-32.9779754715567,20.5087653595700L-33.0332698263133,20.5153164663408L-33.6385441856985,20.5968549846107L-33.6935691274608,20.6042675771807L-34.2955180245047,20.6952404775713L-34.3502406515086,20.7035107412432L-34.9484986700023,20.8038550812497L-35.0028857625926,20.8129772939776L-35.5970944799388,20.9226371247067L-35.6511134542430,20.9326062002276L-36.2409144478445,21.0515045919512L-36.2945327199901,21.0623135366533L-36.8795710640554,21.1903945404782L-36.9327563680614,21.2020382680986L-37.5126788852021,21.3392109670733L-37.5653991140331,21.3516812124346L-38.1398561236664,21.4978756704424L-38.1920794881786,21.5111660757158L-38.7607265549307,21.6662843821937L-38.8124217428172,21.6803860464190L-39.3749144313142,21.8443442780270L-39.4260501302684,21.8592495718096L-39.9820509987478,22.0319358307614L-40.0325965322460,22.0476345815752L-40.5817698873485,22.2289509573076L-40.6316947378124,22.2454342641924L-41.1737118797903,22.4352758525306L-41.2229861654247,22.4525341787432L-41.7575166461274,22.6507820882891L-41.8061103261913,22.6688046255205L-42.3328359362885,22.8753469584876L-42.3807200826610,22.8941235342119L-42.8993208644196,23.1088204183672L-42.9464663900340,23.1283383169268L-43.4566320019369,23.3510778544837L-43.5030106939281,23.3713269033526L-44.0044325428610,23.6019622284665L-44.0500163473094,23.6229290762041L-44.5423928337698,23.8613203166419L-44.5871543325389,23.8829922475908L-45.0701882280315,24.1290135183428L-45.1141004003490,24.1513790884111L-45.5875023441915,24.4048625427975L-45.6305388845409,24.4279064931963L-46.0940221386557,24.6887052653724L-46.1361569799388,24.7124142446611L-46.5894426740611,24.9803744751706L-46.6306504644359,25.0047344961260L-47.0734658477112,25.2796953319007L-47.1137217916454,25.3046917715166L-47.5458002326295,25.5864783722653L-47.5850800909007,25.6120953359697L-48.0061610775595,25.9005538422360L-48.0444411672557,25.9267773428057L-48.4542711811666,26.2217189270749L-48.4915284551586,26.2485317983721L-48.8898609715109,26.5497886139645L-48.9260730184520,26.5771755972002L-49.3126667576437,26.8845588166012L-49.3478116430248,26.9125027456377L-49.7224358158712,27.2258305349444L-49.7564925588573,27.2543148794268L-50.1189198729798,27.5734054047360L-50.1518678106273,27.6024136343096L-50.5018801527624,27.9270710744951L-50.5336994565929,27.9565853872393L-50.8710865812902,28.2865999339515L-50.9017581380809,28.3166012563799L-51.2263167935019,28.6517910757158L-51.2558221258128,28.6822628774736L-51.5673564908311,29.0224181610837L-51.5956777967418,29.0533413686846L-51.8939999180441,29.3982662954424L-51.9211201108898,29.4296231069658L-52.2060507771775,29.7790938812985L-52.2319535650218,29.8108639516924L-52.5033209957088,30.1646847524736L-52.5279907621349,30.1968502798174L-52.7856314815486,30.5547973114743L-52.8090533651317,30.5873379507158L-53.0528126396144,30.9492014048988L-53.0749725736583,30.9820980825518L-53.3047026631638,31.3476681509111L-53.3255872167552,31.3809017934893L-53.5411504345541,31.7499406932289L-53.5607470907176,31.7834896841143L-53.7620131807928,32.1557876068844L-53.7803100980724,32.1896328725908L-53.9671584206228,32.5649520355954L-53.9841446317638,32.5990719595049L-54.1564619777009,32.9772025543942L-54.1721271909679,33.0115780630205L-54.3298099674190,33.3922962942217L-54.3441447652782,33.4269070425127L-54.4870981213853,33.8099611400062L-54.5000938810314,33.8447842397783L-54.6282317079509,34.2299643952145L-54.6398806013072,34.2649807729815L-54.7531255322103,34.6520352163408L-54.7634205259288,34.6872219839190L-54.8617043731019,35.0759409068519L-54.8706392682994,35.1112789907549L-54.9539030231441,35.5014106232419L-54.9614724554027,35.5368771352861L-55.0296658513352,35.9281836945309L-55.0358652509654,35.9637570180986L-55.0889472005173,36.3560147085283L-55.0937728322948,36.3916744985674L-55.1317114271129,36.7846455373858L-55.1351603902782,36.8203701772783L-55.1579326825743,37.2138167816891L-55.1600028909648,37.2495846548174L-55.1675951120660,37.6432690420244L-55.1682853139842,37.6790585317705L-55.1606930928831,38.0727429189776L-55.1600028909648,38.1085324087236L-55.1372305986687,38.5019790131344L-55.1351603902782,38.5377468862627L-55.0972217954601,38.9307179250811L-55.0937728322948,38.9664425649736L-55.0406908827429,39.3587002554033L-55.0358652509654,39.3943600454424L-54.9676718550329,39.7856666046872L-54.9614724554027,39.8212399282549L-54.8782087005580,40.2113715607419L-54.8706392682994,40.2468380727861L-54.7723554211264,40.6355569957191L-54.7634205259288,40.6708950796221L-54.6501755950257,41.0579495229815L-54.6398806013072,41.0931362905596L-54.5117427743877,41.4783164459958L-54.5000938810314,41.5133328237627L-54.3571405249243,41.8963869212562L-54.3441447652782,41.9312100210283L-54.1864619888271,42.3119282522295L-54.1721271909679,42.3465390005205" />
<path d="M85.4297981821095,53.6790585317705L85.4223933097602,53.6909669267203L85.3261299692189,53.8457760610674L85.3179621574164,53.8571732865836L85.2117806039845,54.0053372182940L85.2028847299611,54.0161774980094L85.0872383676564,54.1571011343096L85.0776525783846,54.1673354221165L84.9530373178517,54.3003811636065L84.9428030300448,54.3099669528782L84.8097572885548,54.4345822134111L84.7989170088394,54.4434780874346L84.6579933725392,54.5591244497393L84.6465961470230,54.5672922615417L84.4984322153126,54.6734738149736L84.4865238203629,54.6808786873230L84.3317146860158,54.7771420278643L84.3193474374806,54.7837512633554L84.1585732065236,54.8696713247393L84.1458016000783,54.8754587654480L83.9797707162892,54.9506954946611L83.9666470677820,54.9556349826634L83.7960396371876,55.0198483266924L83.7826206221207,55.0239191536316L83.6081734262501,55.0768399038408L83.5945168100392,55.0800235411874L83.4169807992970,55.1214108266924L83.4031454372713,55.1236952853978L83.2232857309376,55.1533932485674L83.2093315683400,55.1547676294965L83.0279274545705,55.1726345815752L83.0139122568166,55.1730934351606L82.8317146860158,55.1790585317705L78.0460004003015,55.1790585317705L15.8317146860158,55.1790585317705L15.8176994882619,55.1785996781852L15.6355019174611,55.1726345815752L15.6215472099067,55.1712602006461L15.4401360116994,55.1533932485674L15.4263006496737,55.1511087898620L15.2464409433400,55.1214108266924L15.2327848720858,55.1182271893458L15.0552559457814,55.0768399038408L15.0418374756712,55.0727690769017L14.8673973642384,55.0198483266924L14.8542737157312,55.0149088386902L14.6836662851369,54.9506954946611L14.6708935887780,54.9449080539524L14.5048485361134,54.8696713247393L14.4924818325350,54.8630620892482L14.3317146860158,54.7771420278643L14.3198068360227,54.7697371555149L14.1650047861134,54.6734738149736L14.1536064706837,54.6653060031712L14.0054283700978,54.5591244497393L13.9945891802959,54.5502285757158L13.8536797128712,54.4345822134111L13.8434448801076,54.4249964241394L13.7103920541798,54.3003811636065L13.7008068098648,54.2901468757995L13.5761986337697,54.1571011343096L13.5673027597462,54.1462608545942L13.4516563974415,54.0053372182940L13.4434885856391,53.9939399927778L13.3373070322072,53.8457760610674L13.3299021598578,53.8338676661176L13.2336388193165,53.6790585317705L13.2270284939120,53.6666912832354L13.1410942636525,53.5059170522783L13.1353073679005,53.4931454458330L13.0600777231251,53.3271145620440L13.0551382351229,53.3139909135367L12.9909248910939,53.1433834829424L12.9868546091115,53.1299644678754L12.9339409433400,52.9555172720049L12.9307567610367,52.9418606557940L12.8893623910939,52.7643246450518L12.8870779323885,52.7504892830261L12.8573799692189,52.5706295766924L12.8560055882898,52.5566754140947L12.8381386362111,52.3752713003252L12.8376797826257,52.3612561025713L12.8317146860158,52.1790585317705L12.8317146860158,50.7504871031991L12.8317146860158,32.1790585317705L12.8321735396012,32.1650433340166L12.8381386362111,31.9828457632158L12.8395130171402,31.9688916006182L12.8573799692189,31.7874874868486L12.8596644279243,31.7736521248230L12.8893623910939,31.5937924184893L12.8925465733972,31.5801358022783L12.9339409433400,31.4025997915361L12.9380112253224,31.3891807764692L12.9909248910939,31.2147335805986L12.9958643790961,31.2016099320914L13.0600777231251,31.0310025014971L13.0658646188771,31.0182308950518L13.1410942636525,30.8522000112627L13.1477045890571,30.8398327627276L13.2336388193165,30.6790585317705L13.2410436916659,30.6671501368207L13.3373070322072,30.5123410024736L13.3454748440096,30.5009437769575L13.4516563974415,30.3527798452471L13.4605522714650,30.3419395655317L13.5761986337697,30.2010159292315L13.5857838780847,30.1907816414245L13.7103920541798,30.0577358999346L13.7206268869435,30.0481501106628L13.8536797128712,29.9235348501299L13.8645189026731,29.9146389761065L14.0054283700978,29.7989926138018L14.0168266855275,29.7908248019993L14.1650047861134,29.6846432485674L14.1769126361064,29.6772383762181L14.3317146860158,29.5809750356768L14.3440813895942,29.5743658001857L14.5048485361134,29.4884457388018L14.5176212324722,29.4826582980931L14.6836662851369,29.4074215688799L14.6967899336441,29.4024820808777L14.8673973642384,29.3382687368486L14.8808158343486,29.3341979099095L15.0552559457814,29.2812771597002L15.0689120170356,29.2780935223537L15.2464409433400,29.2367062368486L15.2602763053657,29.2344217781433L15.4401360116994,29.2047238149736L15.4540907192538,29.2033494340445L15.6355019174611,29.1854824819658L15.6495171152150,29.1850236283805L15.8317146860158,29.1790585317705L17.9031432574443,29.1790585317705L44.8317146860158,29.1790585317705L44.8457298837697,29.1795173853559L45.0279274545705,29.1854824819658L45.0418821621249,29.1868568628950L45.2232933603322,29.2047238149736L45.2371287223578,29.2070082736790L45.4169884286915,29.2367062368486L45.4306444999457,29.2398898741952L45.6081734262501,29.2812771597002L45.6215918963603,29.2853479866394L45.7960320077931,29.3382687368486L45.8091556563004,29.3432082248509L45.9797630868947,29.4074215688799L45.9925357832535,29.4132090095886L46.1585808359181,29.4884457388018L46.1709475394965,29.4950549742929L46.3317146860158,29.5809750356768L46.3436225360088,29.5883799080261L46.4984245859181,29.6846432485674L46.5098229013478,29.6928110603698L46.6580010019337,29.7989926138018L46.6688401917356,29.8078884878252L46.8097496591603,29.9235348501299L46.8199844919240,29.9331206394017L46.9530373178517,30.0577358999346L46.9626225621667,30.0679701877415L47.0872307382619,30.2010159292315L47.0961266122853,30.2118562089469L47.2117729745900,30.3527798452471L47.2199407863924,30.3641770707633L47.3261223398244,30.5123410024736L47.3335272121737,30.5242493974234L47.4297905527150,30.6790585317705L47.4364008781196,30.6914257803057L47.5223351083790,30.8522000112627L47.5281220041310,30.8649716177080L47.6033516489064,31.0310025014971L47.6082911369086,31.0441261500043L47.6725044809376,31.2147335805986L47.6765747629201,31.2281525956656L47.7294884286915,31.4025997915361L47.7326726109948,31.4162564077471L47.7740669809376,31.5937924184893L47.7763514396430,31.6076277805149L47.8060494028126,31.7874874868486L47.8074237837418,31.8014416494463L47.8252907358205,31.9828457632158L47.8257495894058,31.9968609609697L47.8317146860158,32.1790585317705L47.8317146860158,32.6023700377694L47.8317146860158,38.1054196157549L47.8319610064678,38.1104332178754L47.8351631723439,38.1756100454424L47.8401773194212,38.1758563658944L47.9053612314259,38.1790585317705L50.4001007638966,38.1790585317705L73.0522009182284,38.1790585317705L82.8317146860158,38.1790585317705L82.8457298837697,38.1795173853559L83.0279274545705,38.1854824819658L83.0418816171681,38.1868568628950L83.2232857309376,38.2047238149736L83.2371210929633,38.2070082736790L83.4169807992970,38.2367062368486L83.4306374155080,38.2398898741952L83.6081734262501,38.2812771597002L83.6215924413171,38.2853479866394L83.7960396371876,38.3382687368486L83.8091632856949,38.3432082248509L83.9797707162892,38.4074215688799L83.9925423227345,38.4132090095886L84.1585732065236,38.4884457388018L84.1709404550587,38.4950549742929L84.3317146860158,38.5809750356768L84.3436230809656,38.5883799080261L84.4984322153126,38.6846432485674L84.5098294408288,38.6928110603698L84.6579933725392,38.7989926138018L84.6688336522546,38.8078884878252L84.8097572885548,38.9235348501299L84.8199915763618,38.9331206394017L84.9530373178517,39.0577358999346L84.9626231071235,39.0679701877415L85.0872383676564,39.2010159292315L85.0961342416798,39.2118562089469L85.2117806039845,39.3527798452471L85.2199484157870,39.3641770707633L85.3261299692189,39.5123410024736L85.3335348415682,39.5242493974234L85.4297981821095,39.6790585317705L85.4364074176006,39.6914257803057L85.5223274789845,39.8522000112627L85.5281149196932,39.8649716177080L85.6033516489064,40.0310025014971L85.6082911369086,40.0441261500043L85.6725044809376,40.2147335805986L85.6765753078768,40.2281525956656L85.7294960580861,40.4025997915361L85.7326796954326,40.4162564077471L85.7740669809376,40.5937924184893L85.7763514396430,40.6076277805149L85.8060494028126,40.7874874868486L85.8074237837418,40.8014416494463L85.8252907358205,40.9828457632158L85.8257495894058,40.9968609609697L85.8317146860158,41.1790585317705L85.8317146860158,41.9647728174848L85.8317146860158,52.1790585317705L85.8312558324304,52.1930737295244L85.8252907358205,52.3752713003252L85.8239163548913,52.3892254629229L85.8060494028126,52.5706295766924L85.8037649441073,52.5844649387181L85.7740669809376,52.7643246450518L85.7708833435911,52.7779812612627L85.7294960580861,52.9555172720049L85.7254252311469,52.9689362870719L85.6725044809376,53.1433834829424L85.6675649929354,53.1565071314496L85.6033516489064,53.3271145620440L85.5975642081977,53.3398861684893L85.5223274789845,53.5059170522783L85.5157182434934,53.5182843008135L85.4297981821095,53.6790585317705" />
<path d="M12.7949136657114,12.1781550843015L12.8317146860158,12.1790585317705L12.8317146860158,21.3457251984372L12.8317146860158,22.1790585317705L12.8397785072474,22.4252815326896L12.8402824960744,22.4406704702471L12.8644236955229,22.6858379219934L12.8659325204884,22.7011608877276L12.9060649308745,22.9442316023415L12.9085732065236,22.9594235220049L12.9645173126817,23.1993419503137L12.9680138193165,23.2143368520830L13.0395254806217,23.4500833479470L13.0439949594533,23.4648175039385L13.1307725904275,23.6953796018245L13.1361961923634,23.7097897329424L13.2378664014627,23.9341908703505L13.2442207895314,23.9482159414385L13.3603527403586,24.1654795558686L13.3676109872853,24.1790585317705L13.4977020373772,24.3882655055757L13.5058327280080,24.4013409414385L13.6493299706550,24.6015865181848L13.6582985483205,24.6141018667315L13.8145844513535,24.8045387348381L13.8243523202931,24.8164410390947L13.9927590872968,24.9962506094072L14.0032845102345,25.0074887075518L14.1830940805470,25.1758954745554L14.1943321786915,25.1864208974932L14.3847690467982,25.3427068005263L14.3966713510548,25.3524746694658L14.5969169278012,25.4959719121129L14.6094322763478,25.5049404897783L14.8186392501529,25.6350315398702L14.8317146860158,25.6431622305010L15.0489783004459,25.7592941813282L15.0625572763478,25.7665524282549L15.2869584137559,25.8682226373542L15.3009834848439,25.8745770254229L15.5315455827299,25.9613546563971L15.5459557138478,25.9667782583330L15.7817022097118,26.0382899196382L15.7964363657033,26.0427593984697L16.0363547940121,26.0987035046278L16.0513496957814,26.1022000112627L16.2944204103954,26.1423324216487L16.3096123300587,26.1448406972979L16.5547797818051,26.1689818967464L16.5701027475392,26.1704907217119L16.8163257484583,26.1785545429435L16.8317146860158,26.1790585317705L42.2434793918981,26.1790585317705L43.8317146860158,26.1790585317705L44.0779376869349,26.1709947105389L44.0933266244923,26.1704907217119L44.3384940762387,26.1463495222634L44.3538170419728,26.1448406972979L44.5968877565868,26.1047082869118L44.6120796762501,26.1022000112627L44.8519981045590,26.0462559051046L44.8669930063283,26.0427593984697L45.1027395021922,25.9712477371646L45.1174736581837,25.9667782583330L45.3480357560698,25.8800006273588L45.3624458871876,25.8745770254229L45.5868470245957,25.7729068163236L45.6008720956837,25.7665524282549L45.8181357101139,25.6504204774277L45.8317146860158,25.6431622305010L46.0409216598209,25.5130711804091L46.0539970956837,25.5049404897783L46.2542426724301,25.3614432471313L46.2667580209767,25.3524746694658L46.4571948890833,25.1961887664327L46.4690971933400,25.1864208974932L46.6489067636525,25.0180141304895L46.6601448617970,25.0074887075518L46.8285516288007,24.8276791372393L46.8390770517384,24.8164410390947L46.9953629547715,24.6260041709881L47.0051308237111,24.6141018667315L47.1486280663581,24.4138562899851L47.1575966440236,24.4013409414385L47.2876876941155,24.1921339676333L47.2958183847462,24.1790585317705L47.4119503355734,23.9617949173404L47.4192085825001,23.9482159414385L47.5208787915994,23.7238148040304L47.5272331796681,23.7097897329424L47.6140108106424,23.4792276350564L47.6194344125783,23.4648175039385L47.6909460738834,23.2290710080745L47.6954155527150,23.2143368520830L47.7513596588731,22.9744184237742L47.7548561655080,22.9594235220049L47.7949885758940,22.7163528073909L47.7974968515431,22.7011608877276L47.8216380509916,22.4559934359812L47.8231468759572,22.4406704702471L47.8312106971888,22.1944474693280L47.8317146860158,22.1790585317705L47.8317146860158,-87.9385885270530L47.8317146860158,-94.8209414682295L47.8236508647841,-95.0671649179365L47.8231468759572,-95.0825538835432L47.7990056765086,-95.3277231304412L47.7974968515431,-95.3430462083723L47.7573644411571,-95.5861110887434L47.7548561655080,-95.6013026437666L47.6989120593499,-95.8412228672271L47.6954155527150,-95.8562178811933L47.6239038914098,-96.0919652746331L47.6194344125783,-96.1066994867231L47.5326567816040,-96.3372647261246L47.5272331796681,-96.3516750535871L47.4255629705688,-96.5760712543282L47.4192085825001,-96.5900960168745L47.3030766316729,-96.8073623240321L47.2958183847462,-96.8209414682295L47.1657273346543,-97.0301470956709L47.1575966440236,-97.0432224473860L47.0140994013765,-97.2434716144356L47.0051308237111,-97.2559871873762L46.8488449206780,-97.4464227091191L46.8390770517384,-97.4583249292280L46.6706702847347,-97.6381309092372L46.6601448617970,-97.6493687829878L46.4803352914845,-97.8177753255975L46.4690971933400,-97.8283007345106L46.2786603252334,-97.9845868619377L46.2667580209767,-97.9943547449018L46.0665124442304,-98.1378513143670L46.0539970956837,-98.1468198499586L45.8447901218786,-98.2769122464143L45.8317146860158,-98.2850430211927L45.6144510715856,-98.4011742988381L45.6008720956837,-98.4084325036909L45.3764709582756,-98.5101049567297L45.3624458871876,-98.5164594850447L45.1318837893016,-98.6032382379887L45.1174736581837,-98.6086619100477L44.8817271623198,-98.6801751421106L44.8669930063283,-98.6846447191145L44.6270745780194,-98.7405861325451L44.6120796762501,-98.7440824708845L44.3690089616362,-98.7842128617249L44.3538170419728,-98.7867210111525L44.1086495902265,-98.8108680448439L44.0933266244923,-98.8123772344496L43.8471036235732,-98.8204376897718L43.8317146860158,-98.8209414682295L18.4199499801334,-98.8209414682295L16.8317146860158,-98.8209414682295L16.5854916850966,-98.8128810129072L16.5701027475392,-98.8123772344496L16.3249352957929,-98.7882302007582L16.3096123300587,-98.7867210111525L16.0665416154448,-98.7465906203120L16.0513496957814,-98.7440824708845L15.8114312674726,-98.6881410574539L15.7964363657033,-98.6846447191145L15.5606898698393,-98.6131314870516L15.5459557138478,-98.6086619100477L15.3153936159618,-98.5218831571037L15.3009834848439,-98.5164594850447L15.0765823474358,-98.4147870320058L15.0625572763478,-98.4084325036909L14.8452936619176,-98.2923012260456L14.8317146860158,-98.2850430211927L14.6225077122106,-98.1549506247371L14.6094322763478,-98.1468198499586L14.4091866996015,-98.0033232804934L14.3966713510548,-97.9943547449018L14.2062344829482,-97.8380686174748L14.1943321786915,-97.8283007345106L14.0145226083790,-97.6598941919009L14.0032845102345,-97.6493687829878L13.8348777432308,-97.4695628029786L13.8243523202931,-97.4583249292280L13.6680664172600,-97.2678894074851L13.6582985483205,-97.2559871873762L13.5148013056734,-97.0557380203266L13.5058327280080,-97.0432224473860L13.3757416779160,-96.8340168199446L13.3676109872853,-96.8209414682295L13.2514790364581,-96.6036751610718L13.2442207895314,-96.5900960168745L13.1425505804321,-96.3656998161335L13.1361961923634,-96.3516750535871L13.0494185613892,-96.1211098141857L13.0439949594533,-96.1066994867231L12.9724832981481,-95.8709520932833L12.9680138193165,-95.8562178811933L12.9120697131585,-95.6162976577329L12.9085732065236,-95.6013026437666L12.8684407961375,-95.3582377633955L12.8659325204884,-95.3430462083723L12.8417913210399,-95.0978769614743L12.8402824960744,-95.0825538835432L12.8322186748427,-94.8363304338362L12.8317146860158,-94.8209414682295L12.8317146860158,-28.3570168358765L12.8317146860158,-22.6711815398441L12.8317146860158,-5.8209414682295L12.4269034626678,-5.8110035460696L12.3901024423634,-5.8101000986006L11.9862703246469,-5.7803143065677L11.9495583139455,-5.7776065072920L11.5476774138803,-5.7280357878909L11.5111427866017,-5.7235293588545L11.1121712289845,-5.6542995970950L11.0759010873830,-5.6480059823896L10.6808109842335,-5.5592850249515L10.6448937021290,-5.5512194833662L10.2546291910206,-5.4432241322106L10.2191505991017,-5.4334063730146L9.8346628112192,-5.3063883981611L9.7997093759572,-5.2948413095381L9.4219074808156,-5.1491084298994L9.3875618539845,-5.1358599862959L9.0173690083221,-4.9717618824547L8.9837151132619,-4.9568438730146L8.6220264993703,-4.7747861744469L8.5891457162892,-4.7582354745771L8.2368215484018,-4.5586447915937L8.2047920785939,-4.5405001840498L7.8626855773325,-4.3238590758548L7.8315849863087,-4.3041644296553L7.5005213978485,-4.0710044107344L7.4704247079884,-4.0498080453779L7.1511943104461,-3.8006816110517L7.1221733652150,-3.7780337533857L6.8155594430958,-3.5135493478681L6.7876854501759,-3.4895053110029L6.4944153390919,-3.2102853657311L6.4677544199025,-3.1849017343428L6.1885344746307,-2.8916316232588L6.1631508432423,-2.8649707040693L5.8986664377247,-2.5583567819502L5.8746224008595,-2.5304827890303L5.6254959665333,-2.2112523914879L5.6028481088673,-2.1822314462568L5.3696845931406,-1.8511678577965L5.3484879098927,-1.8210711679365L5.1318502985036,-1.4789646666751L5.1121559701955,-1.4478640756514L4.9125687840179,-1.0955399077640L4.8944244943654,-1.0635104379560L4.7123632989918,-0.7018218240644L4.6958122812306,-0.6689410409834L4.5317176741953,-0.2987481953210L4.5167999826466,-0.2650943002607L4.3710671030080,0.1127075948809L4.3578186594044,0.1470532217119L4.2307971877451,0.5315410095944L4.2192497812306,0.5664944448565L4.1112509332692,0.9567589559649L4.1014328561818,0.9922375478838L4.0127118987436,1.3873276510332L4.0046463571583,1.4232449331377L3.9354200922047,1.8222164907549L3.9291267953908,1.8584866323565L3.8795595727956,2.2603675324216L3.8750534616505,2.2969021597002L3.8452641728118,2.7007342774167L3.8425560556447,2.7374462881182L3.8326181334848,3.1422575114662L3.8317146860158,3.1790585317705L3.8416526081756,3.5838697551185L3.8425560556447,3.6206707754229L3.8723453444834,4.0245028931393L3.8750534616505,4.0612149038408L3.9246206842457,4.4630958039059L3.9291267953908,4.4996304311846L3.9983530603444,4.8986019888018L4.0046463571583,4.9348721304033L4.0933673145965,5.3299622335527L4.1014328561818,5.3658795156572L4.2094317041432,5.7561440267656L4.2192497812306,5.7916226186846L4.3462712528899,6.1761104065671L4.3578186594044,6.2110638418291L4.5035515390431,6.5888657369707L4.5167999826466,6.6232113638018L4.6808945896819,6.9934042094642L4.6958122812306,7.0270581045244L4.8778734766041,7.3887467184160L4.8944244943654,7.4216275014971L5.0940116805429,7.7739516693845L5.1121559701955,7.8059811391924L5.3287935815846,8.1480876404538L5.3484879098927,8.1791882314776L5.5816514256194,8.5102518199378L5.6028481088673,8.5403485097979L5.8519745431935,8.8595789073402L5.8746224008595,8.8885998525713L6.1391068063771,9.1952137746904L6.1631508432423,9.2230877676104L6.4423707885141,9.5163578786944L6.4677544199025,9.5430187978838L6.7610245309865,9.8222387431556L6.7876854501759,9.8476223745440L7.0942993722951,10.1121067800615L7.1221733652150,10.1361508169268L7.4414037627573,10.3852772512529L7.4704247079884,10.4079251089190L7.8014882964487,10.6410851278399L7.8315849863087,10.6622814931963L8.1736914875701,10.8789226013913L8.2047920785939,10.8986172475908L8.5571162464813,11.0982079305742L8.5891457162892,11.1163525381182L8.9508343301808,11.2984102366859L8.9837151132619,11.3149609365557L9.3539079589243,11.4790590403968L9.3875618539845,11.4939770498369L9.7653637491261,11.6397099294756L9.7997093759572,11.6529583730791L10.1841971638397,11.7799763479326L10.2191505991017,11.7915234365557L10.6094151102101,11.8995187877113L10.6448937021290,11.9093365469072L11.0399838052785,11.9980575043454L11.0759010873830,12.0061230459307L11.4748726450001,12.0753528076901L11.5111427866017,12.0816464223955L11.9130236866668,12.1312171417966L11.9495583139455,12.1357235708330L12.3533904316619,12.1655093628659L12.3901024423634,12.1682171621416L12.7949136657114,12.1781550843015" />
<path d="M0.2278840305999,-22.7259904743737L0.2041855417287,-22.7485537729170L-0.0683624980256,-22.9836510222659L-0.0931395925487,-23.0050234994795L-0.3768948949779,-23.2264692188805L-0.4026908315624,-23.2466006479170L-0.6969715195303,-23.4538563292728L-0.7237243093456,-23.4726977548506L-1.0278170344636,-23.6652668517337L-1.0554618276561,-23.6827731332685L-1.3686392543122,-23.8601800800866L-1.3971099294628,-23.8763079843428L-1.7186167475983,-24.0381401580081L-1.7478446401561,-24.0528521737959L-2.0769045588776,-24.1987179320560L-2.1068190969432,-24.2119784555342L-2.4426383413280,-24.3415211241946L-2.4731673635448,-24.3532977304365L-2.8149381714468,-24.4662025969730L-2.8460082448924,-24.4764666757490L-3.1929088669424,-24.5724609893069L-3.2244452871288,-24.5811877450849L-3.5756364899282,-24.6600547037031L-3.6075629629100,-24.6672244272139L-3.9622020162547,-24.7287612161543L-3.9944419301952,-24.7343554696943L-4.3516721166576,-24.7784152231123L-4.3841475881542,-24.7824206552412L-4.7431121903067,-24.8088984689619L-4.7757453359569,-24.8113055429365L-5.1355736491486,-24.8201384744551L-5.1682853139842,-24.8209414682295L-5.1682853139842,-28.4876081348961L-5.1682853139842,-28.8209414682295L-5.1741739349966,-29.0008031727379L-5.1747092641795,-29.0171542367842L-5.1923471527700,-29.1962396503991L-5.1939505971874,-29.2125201425459L-5.2232643204336,-29.3900739552086L-5.2259292043651,-29.4062152109053L-5.2667928772573,-29.5814681253340L-5.2705077566112,-29.5974002084639L-5.3227465388581,-29.7696039082116L-5.3274955190624,-29.7852587900068L-5.3908856150910,-29.9536789458499L-5.3966483510936,-29.9689898691084L-5.4709170100495,-30.1329061390465L-5.4776687063182,-30.1478076181318L-5.5624977188711,-30.3065136473880L-5.5702094472850,-30.3209414682295L-5.6652386424348,-30.4737588764733L-5.6738776601756,-30.4876513681318L-5.7786979116405,-30.6339297494795L-5.7882270254100,-30.6472277841474L-5.9023872452383,-30.7863307199385L-5.9127654470409,-30.7989764413740L-6.0357830760285,-30.9303234618411L-6.0469664968456,-30.9422641000654L-6.1783065237010,-31.0652747354414L-6.1902465261424,-31.0764575204756L-6.3293564555451,-31.1906212371097L-6.3420028127635,-31.2009997568037L-6.4882776973054,-31.3058200082685L-6.5015754140819,-31.3153491220381L-6.6543928223257,-31.4103783171878L-6.6682853139842,-31.4190173349287L-6.8269913432404,-31.5038498442874L-6.8414191640819,-31.5115618905928L-7.0053354340200,-31.5858270527428L-7.0202369131053,-31.5925784311201L-7.1886570689484,-31.6559685271487L-7.2039679922069,-31.6617312631514L-7.3761716919546,-31.7139665485924L-7.3918265737499,-31.7187152109053L-7.5670829849844,-31.7595788837975L-7.5830153860057,-31.7632937631514L-7.7605657018627,-31.7926109832034L-7.7767066396678,-31.7952761850264L-7.9557955500886,-31.8129140736169L-7.9720763601268,-31.8145175180342L-8.1519345678294,-31.8204061390465L-8.1682853139842,-31.8209414682295L-48.5016186473176,-31.8209414682295L-52.1682853139842,-31.8209414682295L-52.3481439587876,-31.8150528472171L-52.3644947446788,-31.8145175180342L-52.5435832179988,-31.7968796294437L-52.5598639883006,-31.7952761850264L-52.7374151783590,-31.7659589649743L-52.7535561956371,-31.7632937631514L-52.9288104213680,-31.7224300902591L-52.9447426237071,-31.7187152109053L-53.1169485089585,-31.6664799254642L-53.1326035894359,-31.6617312631514L-53.3010246194805,-31.5983411671227L-53.3163356222118,-31.5925784311201L-53.4802501437470,-31.5183132689700L-53.4951514638866,-31.5115618905928L-53.6538574931428,-31.4267293812340L-53.6682853139842,-31.4190173349287L-53.8211035964295,-31.3239881397790L-53.8349961675609,-31.3153491220381L-53.9812719263042,-31.2105288705732L-53.9945697225536,-31.2009997568037L-54.1336765922511,-31.0868360401696L-54.1463226713146,-31.0764575204756L-54.2776653207744,-30.9534468850996L-54.2896055616344,-30.9422641000654L-54.4126214422191,-30.8109170795983L-54.4238047040904,-30.7989764413740L-54.5379668908720,-30.6598735055830L-54.5483452714885,-30.6472277841474L-54.6531650858526,-30.5009494027998L-54.6626941598857,-30.4876513681318L-54.7577224808340,-30.3348339598880L-54.7663614191020,-30.3209414682295L-54.8511917429571,-30.1622354389733L-54.8589035905803,-30.1478076181318L-54.9331722495362,-29.9838913481937L-54.9399239458049,-29.9689898691084L-55.0033129490817,-29.8005697132653L-55.0090755857433,-29.7852587900068L-55.0613139308894,-29.6130550902591L-55.0660628713573,-29.5974002084639L-55.1069263256992,-29.4221472940351L-55.1106411851848,-29.4062152109053L-55.1399549084311,-29.2286613982425L-55.1426197923625,-29.2125201425459L-55.1602585551545,-29.0334347289310L-55.1618620790447,-29.0171542367842L-55.1677500444059,-28.8372925322757L-55.1682853139842,-28.8209414682295L-55.1682853139842,11.5123918651039L-55.1682853139842,15.1790585317705L-55.1623973486230,15.3589202362790L-55.1618620790447,15.3752713003252L-55.1442233162527,15.5543567139401L-55.1426197923625,15.5706372060869L-55.1133060691163,15.7481910187497L-55.1106411851848,15.7643322744463L-55.0697777308429,15.9395851888750L-55.0660628713573,15.9555172720049L-55.0138245262111,16.1277209717526L-55.0090755857433,16.1433758535479L-54.9456865824664,16.3117960093910L-54.9399239458049,16.3271069326494L-54.8656552868490,16.4910232025876L-54.8589035905803,16.5059246816729L-54.7740732667252,16.6646307109290L-54.7663614191020,16.6790585317705L-54.6713330981538,16.8318759400143L-54.6626941598857,16.8457684316729L-54.5578743455216,16.9920468130205L-54.5483452714885,17.0053448476885L-54.4341830847069,17.1444477834795L-54.4238047040904,17.1570935049151L-54.3007888235057,17.2884405253822L-54.2896055616344,17.3003811636065L-54.1582629121745,17.4233917989824L-54.1463226713146,17.4345745840166L-54.0072158016170,17.5487383006507L-53.9945697225536,17.5591168203447L-53.8482939638103,17.6639370718096L-53.8349961675609,17.6734661855791L-53.6821778851156,17.7684953807289L-53.6682853139842,17.7771343984697L-53.5095792847280,17.8619669078285L-53.4951514638866,17.8696789541338L-53.3312369423513,17.9439441162839L-53.3163356222118,17.9506954946611L-53.1479145921672,18.0140855906898L-53.1326035894359,18.0198483266924L-52.9603977041845,18.0720836121335L-52.9447426237071,18.0768322744463L-52.7694883979762,18.1176959473386L-52.7535561956371,18.1214108266924L-52.5760050055787,18.1507280467445L-52.5598639883006,18.1533932485674L-52.3807755149806,18.1710311371579L-52.3644947446788,18.1726345815752L-52.1846360998754,18.1785232025876L-52.1682853139842,18.1790585317705L-11.8349519806509,18.1790585317705L-8.1682853139842,18.1790585317705L-7.9884271062816,18.1731699107581L-7.9720763601268,18.1726345815752L-7.7929874497061,18.1549966929847L-7.7767066396678,18.1533932485674L-7.5991563238109,18.1240760285153L-7.5830153860057,18.1214108266924L-7.4077589747712,18.0805471538001L-7.3918265737499,18.0768322744463L-7.2196228740021,18.0245969890052L-7.2039679922069,18.0198483266924L-7.0355478363638,17.9564582306638L-7.0202369131053,17.9506954946611L-6.8563206431672,17.8764303325111L-6.8414191640819,17.8696789541338L-6.6827131348257,17.7848464447751L-6.6682853139842,17.7771343984697L-6.5154679057404,17.6821052033200L-6.5015754140819,17.6734661855791L-6.3553005295401,17.5686459341143L-6.3420028127635,17.5591168203447L-6.2028928833609,17.4449531037106L-6.1902465261424,17.4345745840166L-6.0589064992870,17.3115639486406L-6.0469664968456,17.3003811636065L-5.9239488678579,17.1690341431393L-5.9127654470409,17.1570935049151L-5.7986052272126,17.0179905691240L-5.7882270254100,17.0053448476885L-5.6834067739452,16.8590664663408L-5.6738776601756,16.8457684316729L-5.5788484650259,16.6929510234290L-5.5702094472850,16.6790585317705L-5.4853804347321,16.5203525025143L-5.4776687063182,16.5059246816729L-5.4034000473623,16.3420084117347L-5.3966483510936,16.3271069326494L-5.3332582550650,16.1586867768063L-5.3274955190624,16.1433758535479L-5.2752567368155,15.9711721538001L-5.2705077566112,15.9555172720049L-5.2296440837189,15.7802643575762L-5.2259292043651,15.7643322744463L-5.1966154811188,15.5867784617835L-5.1939505971874,15.5706372060869L-5.1763127085969,15.3915517924720L-5.1747092641795,15.3752713003252L-5.1688206431672,15.1954095958167L-5.1682853139842,15.1790585317705L-5.1682853139842,13.1790585317705L-5.1682853139842,-8.8209414682295L-4.8084570007925,-8.8297743997480L-4.7757453359569,-8.8305773935224L-4.4167807338044,-8.8570552072431L-4.3841475881542,-8.8594622812178L-4.0269174016918,-8.9035220346357L-3.9944419301952,-8.9075274667646L-3.6398028768504,-8.9690642557051L-3.6075629629100,-8.9746585092451L-3.2563717601105,-9.0535254678633L-3.2244452871288,-9.0606951913740L-2.8775446650788,-9.1566895049319L-2.8460082448924,-9.1654162607099L-2.5042374369904,-9.2783211272464L-2.4731673635448,-9.2885852060224L-2.1373481191600,-9.4181278746829L-2.1068190969432,-9.4299044809248L-1.7777591782217,-9.5757702391849L-1.7478446401561,-9.5890307626631L-1.4263378220205,-9.7508629363284L-1.3971099294628,-9.7655749521162L-1.0839325028067,-9.9429818989342L-1.0554618276561,-9.9591098031904L-0.7513691025381,-10.1516789000735L-0.7237243093456,-10.1691851816084L-0.4294436213776,-10.3764408629642L-0.4026908315624,-10.3952822885420L-0.1189355291332,-10.6167280079430L-0.0931395925487,-10.6368594369795L0.1794084472055,-10.8719566863284L0.2041855417287,-10.8933291635420L0.4648689193125,-11.1415254475182L0.4885674081837,-11.1640887460615L0.7367601953541,-11.4247686268395L0.7593231760060,-11.4484667978193L0.9944239221608,-11.7210148375735L1.0157967172658,-11.7457919320967L1.2372424366668,-12.0295507313317L1.2573738657033,-12.0553469858076L1.4646295470591,-12.3496241769697L1.4834709726369,-12.3763766488935L1.6760365727142,-12.6804728708174L1.6935425363576,-12.7081179819014L1.8709564767872,-13.0212989053633L1.8870850168263,-13.0497698984053L2.0489171904917,-13.3712732197350L2.0636292062794,-13.4005007944014L2.2094914677337,-13.7295572163170L2.2227516733205,-13.7594714364912L2.3522908451751,-14.0952906808760L2.3640671335255,-14.1258197030928L2.4769720000620,-14.4675905109948L2.4872360788380,-14.4986605844404L2.5832373860076,-14.8455647032962L2.5919647775685,-14.8771014413740L2.6708282393808,-15.2282926441735L2.6779976450001,-15.2602191171553L2.7395309371347,-15.6148581705000L2.7451248727833,-15.6470980844404L2.7891881230071,-16.0043317677086L2.7931938730275,-16.0368075570967L2.8196716867482,-16.3957686624433L2.8220787607228,-16.4284014902021L2.8309116922414,-16.7882298033939L2.8317146860158,-16.8209414682295L2.8228817544972,-17.1807697814212L2.8220787607228,-17.2134814462568L2.7956009470021,-17.5724425516035L2.7931938730275,-17.6050753793623L2.7491306228037,-17.9623090626305L2.7451248727833,-17.9947848520185L2.6835915806487,-18.3494239053633L2.6779976450001,-18.3816638193037L2.5991341831878,-18.7328550221032L2.5919647775685,-18.7647814950849L2.4959634703989,-19.1116856139407L2.4872360788380,-19.1432223520185L2.3743312123016,-19.4849931599206L2.3640671335255,-19.5160632333662L2.2345279616709,-19.8518824777510L2.2227516733205,-19.8824114999678L2.0768894118662,-20.2114679218835L2.0636292062794,-20.2413821420576L1.9017970326141,-20.5628854633874L1.8870850168263,-20.5921130380537L1.7096710763966,-20.9052939615156L1.6935425363576,-20.9337649545576L1.5009769362803,-21.2378611764814L1.4834709726369,-21.2655062875654L1.2762152912811,-21.5597834787275L1.2573738657033,-21.5865359506514L1.0359281463022,-21.8702947498864L1.0157967172658,-21.8960910043623L0.7806959711110,-22.1686390441165L0.7593231760060,-22.1934161386396L0.5111303888356,-22.4540960194176L0.4885674081837,-22.4777941903974L0.2278840305999,-22.7259904743737" />
<path d="M-51.8220176137889,-98.2021780214216L-52.1466435827220,-98.0286616734173L-52.1682853139842,-98.0170939168837L-52.4808677174056,-97.8227175823357L-52.5017065443004,-97.8097591600325L-52.8009069599117,-97.5953549942877L-52.8208536542857,-97.5810613832380L-53.1053908802474,-97.3475478193666L-53.1243600286449,-97.3319802484419L-53.3930154479946,-97.0803568563368L-53.4109258092845,-97.0635819635298L-53.6625492013896,-96.7949265441801L-53.6793240941966,-96.7770161828901L-53.9128376580680,-96.4924789569284L-53.9284052289928,-96.4735098085310L-54.1428093947376,-96.1743093929197L-54.1571030057872,-96.1543626985456L-54.3514793403352,-95.8417802951242L-54.3644377626384,-95.8209414682295L-54.5379541106428,-95.4963154992964L-54.5495218671764,-95.4746737680342L-54.7014350332225,-95.1393940648939L-54.7115625776256,-95.1170420846846L-54.8412221260274,-94.7725449702646L-54.8498660959209,-94.7495784959700L-54.9567168094123,-94.3973382911589L-54.9638401903117,-94.3738556108381L-55.0474247522558,-94.0153815052416L-55.0529970563854,-93.9914832315351L-55.1129571683610,-93.6283103427793L-55.1169545091594,-93.6040988168623L-55.1530335731710,-93.2377814850714L-55.1554388441051,-93.2133603296186L-55.1674824096168,-92.8454676470663L-55.1682853139842,-92.8209414682295L-55.1682853139842,-43.1334414682295L-55.1682853139842,-39.8209414682295L-55.1562417484725,-39.4530496797468L-55.1554388441051,-39.4285235605146L-55.1193597800935,-39.0622053346540L-55.1169545091594,-39.0377841195967L-55.0569943971837,-38.6746094427015L-55.0529970563854,-38.6503977975752L-54.9694124944414,-38.2919259271528L-54.9638401903117,-38.2680278024580L-54.8569894768203,-37.9157858095076L-54.8498660959209,-37.8923030099775L-54.7202065475190,-37.5478108129408L-54.7115625776256,-37.5248446664717L-54.5596494115794,-37.1895613870527L-54.5495218671764,-37.1672091684248L-54.3760055191720,-36.8425831994917L-54.3644377626384,-36.8209414682295L-54.1700614280904,-36.5083604059126L-54.1571030057872,-36.4875216684248L-53.9426988400424,-36.1883230409529L-53.9284052289928,-36.1683764657881L-53.6948916651214,-35.8838334283735L-53.6793240941966,-35.8648638925459L-53.4277007020915,-35.5962138376142L-53.4109258092845,-35.5783038339521L-53.1422703899349,-35.3266768655683L-53.1243600286449,-35.3099017343428L-52.8398228026832,-35.0763921937849L-52.8208536542857,-35.0608248910810L-52.5216532386745,-34.8464198312666L-52.5017065443004,-34.8321261606123L-52.1891241408790,-34.6377482614424L-52.1682853139842,-34.6247897348310L-51.8436593450511,-34.4512758455183L-51.8220176137889,-34.4397082528974L-51.4867379106487,-34.2877950868513L-51.4643859304393,-34.2776675424482L-51.1198888160194,-34.1480059823896L-51.0969223417247,-34.1393618783857L-50.7446821369136,-34.0325098237898L-50.7211994565929,-34.0253863534834L-50.3627253509963,-33.9418015680220L-50.3388270772899,-33.9362292489912L-49.9756541885341,-33.8762693605329L-49.9514426626170,-33.8722720346357L-49.5851253308261,-33.8361945352461L-49.5607041753734,-33.8337893686201L-49.1928114928211,-33.8217444620039L-49.1682853139842,-33.8209414682295L0.5192146860158,-33.8209414682295L3.8317146860158,-33.8209414682295L4.1996064744984,-33.8329863748457L4.2241325937306,-33.8337893686201L4.5904508195912,-33.8698668680098L4.6148720346486,-33.8722720346357L4.9780467115437,-33.9322319230940L5.0022583566701,-33.9362292489912L5.3607302270924,-34.0198140344526L5.3846283517872,-34.0253863534834L5.7368703447377,-34.1322384080793L5.7603531442677,-34.1393618783857L6.1048453413045,-34.2690234384443L6.1278114877736,-34.2776675424482L6.4630947671925,-34.4295807084944L6.4854469858205,-34.4397082528974L6.8100729547536,-34.6132221422102L6.8317146860158,-34.6247897348310L7.1442957483327,-34.8191676340010L7.1651344858205,-34.8321261606123L7.4643331132924,-35.0465312204267L7.4842796884572,-35.0608248910810L7.7688227258717,-35.2943344316389L7.7877922616994,-35.3099017343428L8.0564423166310,-35.5615287027265L8.0743523202931,-35.5783038339521L8.3259792886769,-35.8469538888838L8.3427544199025,-35.8648638925459L8.5762639604603,-36.1494069299604L8.5918312631642,-36.1683764657881L8.8062363229787,-36.4675750932600L8.8205299936330,-36.4875216684248L9.0149078928029,-36.8001027307417L9.0278664194142,-36.8209414682295L9.2013803087269,-37.1455674371626L9.2129479013478,-37.1672091684248L9.3648610673939,-37.5024924478437L9.3749886117970,-37.5248446664717L9.5046501718556,-37.8693368635084L9.5132942758595,-37.8923030099775L9.6201463304555,-38.2445450029280L9.6272698007619,-38.2680278024580L9.7108545862233,-38.6264996728804L9.7164269052540,-38.6503977975752L9.7763867937123,-39.0135724744703L9.7803841196095,-39.0377841195967L9.8164616189992,-39.4041023454573L9.8188667856251,-39.4285235605146L9.8309116922414,-39.7964153489973L9.8317146860158,-39.8209414682295L9.8317146860158,-89.5084414682295L9.8317146860158,-92.8209414682295L9.8196697793996,-93.1888341507818L9.8188667856251,-93.2133603296186L9.7827892862355,-93.5796776614096L9.7803841196095,-93.6040988168623L9.7204242311513,-93.9672717056181L9.7164269052540,-93.9914832315351L9.6328421197926,-94.3499573371317L9.6272698007619,-94.3738556108381L9.5204177461659,-94.7260958156492L9.5132942758595,-94.7495784959700L9.3836327158009,-95.0940756103899L9.3749886117970,-95.1170420846846L9.2230754457509,-95.4523217878248L9.2129479013478,-95.4746737680342L9.0394340120351,-95.7992997369673L9.0278664194142,-95.8209414682295L8.8334885202443,-96.1335238716509L8.8205299936330,-96.1543626985456L8.6061249338185,-96.4535631141569L8.5918312631642,-96.4735098085310L8.3583217226063,-96.7580470344927L8.3427544199025,-96.7770161828901L8.0911274515187,-97.0456716022398L8.0743523202931,-97.0635819635298L7.8057022653615,-97.3152053556349L7.7877922616994,-97.3319802484419L7.5032492242848,-97.5654938123133L7.4842796884572,-97.5810613832380L7.1850810609852,-97.7954655489828L7.1651344858205,-97.8097591600325L6.8525534235036,-98.0041354945805L6.8317146860158,-98.0170939168837L6.5070887170827,-98.1906102648880L6.4854469858205,-98.2021780214216L6.1501637064015,-98.3540911874678L6.1278114877736,-98.3642187318708L5.7833192907368,-98.4938782802727L5.7603531442677,-98.5025222501661L5.4081111513173,-98.6093729636576L5.3846283517872,-98.6164963445570L5.0261564813649,-98.7000809065010L5.0022583566701,-98.7056532106306L4.6390836797749,-98.7656133226063L4.6148720346486,-98.7696106634046L4.2485538087880,-98.8056897274162L4.2241325937306,-98.8080949983503L3.8562408052479,-98.8201385638620L3.8317146860158,-98.8209414682295L-45.8557853139842,-98.8209414682295L-49.1682853139842,-98.8209414682295L-49.5361779965366,-98.8088979027178L-49.5607041753734,-98.8080949983503L-49.9270215071643,-98.7720159343388L-49.9514426626170,-98.7696106634046L-50.3146155513728,-98.7096505514290L-50.3388270772899,-98.7056532106306L-50.6973011828864,-98.6220686486866L-50.7211994565929,-98.6164963445570L-51.0734396614040,-98.5096456310656L-51.0969223417247,-98.5025222501661L-51.4414194561447,-98.3728627017643L-51.4643859304393,-98.3642187318708L-51.7996656335796,-98.2123055658247L-51.8220176137889,-98.2021780214216" />
<path d="M85.7808674868797,35.1790585317705L85.7808674868797,-91.9220835547428L85.7808674868797,-98.8209414682295L74.9791380319443,-98.8209414682295L74.3928361068643,-98.8209414682295L74.3928361068643,27.0953231811449L74.3928361068643,35.1790585317705L85.0938683902156,35.1790585317705L85.7808674868797,35.1790585317705" />
<path d="M66.7808674868797,35.1790585317705L66.7808674868797,-91.9220835547428L66.7808674868797,-98.8209414682295L55.9791307953416,-98.8209414682295L55.3928289377235,-98.8209414682295L55.3928289377235,27.0953231811449L55.3928289377235,35.1790585317705L66.0938683902156,35.1790585317705L66.7808674868797,35.1790585317705" />
</svg>
